<?xml version="1.0" encoding="UTF-8"?>
<!DOCTYPE svg PUBLIC "-//W3C//DTD SVG 1.1//EN" "http://www.w3.org/Graphics/SVG/1.1/DTD/svg11.dtd">
<svg version="1.2" width="10mm" height="10mm" viewBox="4000 3000 1000 1000" preserveAspectRatio="xMidYMid" fill-rule="evenodd" stroke-width="28.222" stroke-linejoin="round" xmlns="http://www.w3.org/2000/svg" xmlns:ooo="http://xml.openoffice.org/svg/export" xmlns:xlink="http://www.w3.org/1999/xlink" xmlns:presentation="http://sun.com/xmlns/staroffice/presentation" xmlns:smil="http://www.w3.org/2001/SMIL20/" xmlns:anim="urn:oasis:names:tc:opendocument:xmlns:animation:1.0" xml:space="preserve">
 <defs class="ClipPathGroup">
  <clipPath id="presentation_clip_path" clipPathUnits="userSpaceOnUse">
   <rect x="4000" y="3000" width="1000" height="1000"/>
  </clipPath>
  <clipPath id="presentation_clip_path_shrink" clipPathUnits="userSpaceOnUse">
   <rect x="4001" y="3001" width="998" height="998"/>
  </clipPath>
 </defs>
 <defs class="TextShapeIndex">
  <g ooo:slide="id1" ooo:id-list="id3"/>
 </defs>
 <defs class="EmbeddedBulletChars">
  <g id="bullet-char-template-57356" transform="scale(0.00048828125,-0.00048828125)">
   <path d="M 580,1141 L 1163,571 580,0 -4,571 580,1141 Z"/>
  </g>
  <g id="bullet-char-template-57354" transform="scale(0.00048828125,-0.00048828125)">
   <path d="M 8,1128 L 1137,1128 1137,0 8,0 8,1128 Z"/>
  </g>
  <g id="bullet-char-template-10146" transform="scale(0.00048828125,-0.00048828125)">
   <path d="M 174,0 L 602,739 174,1481 1456,739 174,0 Z M 1358,739 L 309,1346 659,739 1358,739 Z"/>
  </g>
  <g id="bullet-char-template-10132" transform="scale(0.00048828125,-0.00048828125)">
   <path d="M 2015,739 L 1276,0 717,0 1260,543 174,543 174,936 1260,936 717,1481 1274,1481 2015,739 Z"/>
  </g>
  <g id="bullet-char-template-10007" transform="scale(0.00048828125,-0.00048828125)">
   <path d="M 0,-2 C -7,14 -16,27 -25,37 L 356,567 C 262,823 215,952 215,954 215,979 228,992 255,992 264,992 276,990 289,987 310,991 331,999 354,1012 L 381,999 492,748 772,1049 836,1024 860,1049 C 881,1039 901,1025 922,1006 886,937 835,863 770,784 769,783 710,716 594,584 L 774,223 C 774,196 753,168 711,139 L 727,119 C 717,90 699,76 672,76 641,76 570,178 457,381 L 164,-76 C 142,-110 111,-127 72,-127 30,-127 9,-110 8,-76 1,-67 -2,-52 -2,-32 -2,-23 -1,-13 0,-2 Z"/>
  </g>
  <g id="bullet-char-template-10004" transform="scale(0.00048828125,-0.00048828125)">
   <path d="M 285,-33 C 182,-33 111,30 74,156 52,228 41,333 41,471 41,549 55,616 82,672 116,743 169,778 240,778 293,778 328,747 346,684 L 369,508 C 377,444 397,411 428,410 L 1163,1116 C 1174,1127 1196,1133 1229,1133 1271,1133 1292,1118 1292,1087 L 1292,965 C 1292,929 1282,901 1262,881 L 442,47 C 390,-6 338,-33 285,-33 Z"/>
  </g>
  <g id="bullet-char-template-9679" transform="scale(0.00048828125,-0.00048828125)">
   <path d="M 813,0 C 632,0 489,54 383,161 276,268 223,411 223,592 223,773 276,916 383,1023 489,1130 632,1184 813,1184 992,1184 1136,1130 1245,1023 1353,916 1407,772 1407,592 1407,412 1353,268 1245,161 1136,54 992,0 813,0 Z"/>
  </g>
  <g id="bullet-char-template-8226" transform="scale(0.00048828125,-0.00048828125)">
   <path d="M 346,457 C 273,457 209,483 155,535 101,586 74,649 74,723 74,796 101,859 155,911 209,963 273,989 346,989 419,989 480,963 531,910 582,859 608,796 608,723 608,648 583,586 532,535 482,483 420,457 346,457 Z"/>
  </g>
  <g id="bullet-char-template-8211" transform="scale(0.00048828125,-0.00048828125)">
   <path d="M -4,459 L 1135,459 1135,606 -4,606 -4,459 Z"/>
  </g>
  <g id="bullet-char-template-61548" transform="scale(0.00048828125,-0.00048828125)">
   <path d="M 173,740 C 173,903 231,1043 346,1159 462,1274 601,1332 765,1332 928,1332 1067,1274 1183,1159 1299,1043 1357,903 1357,740 1357,577 1299,437 1183,322 1067,206 928,148 765,148 601,148 462,206 346,322 231,437 173,577 173,740 Z"/>
  </g>
 </defs>
 <defs class="TextEmbeddedBitmaps"/>
 <g class="SlideGroup">
  <g>
   <g id="container-id1">
    <g id="id1" class="Slide" clip-path="url(#presentation_clip_path)">
     <g class="Page">
      <g class="Graphic">
       <g id="id3">
        <rect class="BoundingBox" stroke="none" fill="none" x="4000" y="3000" width="1001" height="1001"/>
        <defs>
         <clipPath id="clip_path_1" clipPathUnits="userSpaceOnUse">
          <path d="M 4792,3343 L 4661,3213 4504,3371 4346,3213 4215,3343 4373,3501 4215,3659 4346,3790 4504,3632 4661,3790 4792,3659 4634,3501 4792,3343 Z"/>
         </clipPath>
        </defs>
        <g clip-path="url(#clip_path_1)">
         <path fill="rgb(255,95,6)" stroke="none" d="M 4504,3055 L 4517,3068 4071,3515 4057,3501 4504,3055 Z"/>
         <path fill="rgb(255,95,6)" stroke="none" d="M 4517,3068 L 4521,3073 4075,3519 4071,3515 4517,3068 Z"/>
         <path fill="rgb(255,94,6)" stroke="none" d="M 4521,3073 L 4525,3077 4079,3523 4075,3519 4521,3073 Z"/>
         <path fill="rgb(254,93,6)" stroke="none" d="M 4525,3077 L 4530,3081 4084,3527 4079,3523 4525,3077 Z"/>
         <path fill="rgb(254,93,6)" stroke="none" d="M 4530,3081 L 4534,3085 4088,3532 4084,3527 4530,3081 Z"/>
         <path fill="rgb(253,92,6)" stroke="none" d="M 4534,3085 L 4538,3090 4092,3536 4088,3532 4534,3085 Z"/>
         <path fill="rgb(253,91,6)" stroke="none" d="M 4538,3090 L 4543,3094 4096,3540 4092,3536 4538,3090 Z"/>
         <path fill="rgb(252,90,7)" stroke="none" d="M 4543,3094 L 4547,3098 4101,3544 4096,3540 4543,3094 Z"/>
         <path fill="rgb(251,89,7)" stroke="none" d="M 4547,3098 L 4551,3103 4105,3549 4101,3544 4547,3098 Z"/>
         <path fill="rgb(251,88,7)" stroke="none" d="M 4551,3103 L 4555,3107 4109,3553 4105,3549 4551,3103 Z"/>
         <path fill="rgb(251,88,7)" stroke="none" d="M 4555,3107 L 4560,3111 4113,3557 4109,3553 4555,3107 Z"/>
         <path fill="rgb(250,87,7)" stroke="none" d="M 4560,3111 L 4564,3115 4118,3562 4113,3557 4560,3111 Z"/>
         <path fill="rgb(250,86,7)" stroke="none" d="M 4564,3115 L 4568,3120 4122,3566 4118,3562 4564,3115 Z"/>
         <path fill="rgb(249,85,7)" stroke="none" d="M 4568,3120 L 4573,3124 4127,3570 4122,3566 4568,3120 Z"/>
         <path fill="rgb(249,84,7)" stroke="none" d="M 4573,3124 L 4577,3129 4131,3575 4127,3570 4573,3124 Z"/>
         <path fill="rgb(248,83,7)" stroke="none" d="M 4577,3129 L 4582,3133 4136,3579 4131,3575 4577,3129 Z"/>
         <path fill="rgb(248,82,7)" stroke="none" d="M 4582,3133 L 4586,3138 4140,3584 4136,3579 4582,3133 Z"/>
         <path fill="rgb(247,82,7)" stroke="none" d="M 4586,3138 L 4591,3142 4145,3588 4140,3584 4586,3138 Z"/>
         <path fill="rgb(247,81,8)" stroke="none" d="M 4591,3142 L 4595,3147 4149,3593 4145,3588 4591,3142 Z"/>
         <path fill="rgb(246,80,8)" stroke="none" d="M 4595,3147 L 4600,3151 4154,3597 4149,3593 4595,3147 Z"/>
         <path fill="rgb(246,79,8)" stroke="none" d="M 4600,3151 L 4604,3156 4158,3602 4154,3597 4600,3151 Z"/>
         <path fill="rgb(245,78,8)" stroke="none" d="M 4604,3156 L 4609,3160 4163,3606 4158,3602 4604,3156 Z"/>
         <path fill="rgb(245,77,8)" stroke="none" d="M 4609,3160 L 4613,3165 4167,3611 4163,3606 4609,3160 Z"/>
         <path fill="rgb(244,76,8)" stroke="none" d="M 4613,3165 L 4618,3169 4172,3615 4167,3611 4613,3165 Z"/>
         <path fill="rgb(244,75,8)" stroke="none" d="M 4618,3169 L 4622,3174 4176,3620 4172,3615 4618,3169 Z"/>
         <path fill="rgb(243,75,8)" stroke="none" d="M 4622,3174 L 4627,3178 4181,3624 4176,3620 4622,3174 Z"/>
         <path fill="rgb(243,74,8)" stroke="none" d="M 4627,3178 L 4631,3183 4185,3629 4181,3624 4627,3178 Z"/>
         <path fill="rgb(242,73,9)" stroke="none" d="M 4631,3183 L 4636,3187 4190,3633 4185,3629 4631,3183 Z"/>
         <path fill="rgb(242,72,9)" stroke="none" d="M 4636,3187 L 4640,3192 4194,3638 4190,3633 4636,3187 Z"/>
         <path fill="rgb(241,71,9)" stroke="none" d="M 4640,3192 L 4645,3196 4199,3642 4194,3638 4640,3192 Z"/>
         <path fill="rgb(241,70,9)" stroke="none" d="M 4645,3196 L 4649,3201 4203,3647 4199,3642 4645,3196 Z"/>
         <path fill="rgb(240,69,9)" stroke="none" d="M 4649,3201 L 4654,3205 4208,3651 4203,3647 4649,3201 Z"/>
         <path fill="rgb(240,69,9)" stroke="none" d="M 4654,3205 L 4658,3210 4212,3656 4208,3651 4654,3205 Z"/>
         <path fill="rgb(239,68,9)" stroke="none" d="M 4658,3210 L 4663,3214 4217,3660 4212,3656 4658,3210 Z"/>
         <path fill="rgb(239,67,9)" stroke="none" d="M 4663,3214 L 4667,3219 4221,3665 4217,3660 4663,3214 Z"/>
         <path fill="rgb(238,66,10)" stroke="none" d="M 4667,3219 L 4672,3223 4226,3669 4221,3665 4667,3219 Z"/>
         <path fill="rgb(238,65,10)" stroke="none" d="M 4672,3223 L 4676,3228 4230,3674 4226,3669 4672,3223 Z"/>
         <path fill="rgb(238,64,10)" stroke="none" d="M 4676,3228 L 4681,3232 4235,3678 4230,3674 4676,3228 Z"/>
         <path fill="rgb(237,63,10)" stroke="none" d="M 4681,3232 L 4685,3237 4239,3683 4235,3678 4681,3232 Z"/>
         <path fill="rgb(237,63,10)" stroke="none" d="M 4685,3237 L 4690,3241 4244,3687 4239,3683 4685,3237 Z"/>
         <path fill="rgb(236,62,10)" stroke="none" d="M 4690,3241 L 4694,3246 4248,3692 4244,3687 4690,3241 Z"/>
         <path fill="rgb(236,61,10)" stroke="none" d="M 4694,3246 L 4699,3250 4253,3696 4248,3692 4694,3246 Z"/>
         <path fill="rgb(235,60,10)" stroke="none" d="M 4699,3250 L 4703,3255 4257,3701 4253,3696 4699,3250 Z"/>
         <path fill="rgb(235,59,10)" stroke="none" d="M 4703,3255 L 4708,3259 4262,3705 4257,3701 4703,3255 Z"/>
         <path fill="rgb(234,58,11)" stroke="none" d="M 4708,3259 L 4712,3264 4266,3710 4262,3705 4708,3259 Z"/>
         <path fill="rgb(234,57,11)" stroke="none" d="M 4712,3264 L 4717,3268 4271,3714 4266,3710 4712,3264 Z"/>
         <path fill="rgb(233,56,11)" stroke="none" d="M 4717,3268 L 4721,3273 4275,3719 4271,3714 4717,3268 Z"/>
         <path fill="rgb(233,56,11)" stroke="none" d="M 4721,3273 L 4726,3277 4280,3723 4275,3719 4721,3273 Z"/>
         <path fill="rgb(232,55,11)" stroke="none" d="M 4726,3277 L 4730,3282 4284,3728 4280,3723 4726,3277 Z"/>
         <path fill="rgb(232,54,11)" stroke="none" d="M 4730,3282 L 4735,3286 4289,3732 4284,3728 4730,3282 Z"/>
         <path fill="rgb(231,53,11)" stroke="none" d="M 4735,3286 L 4739,3291 4293,3737 4289,3732 4735,3286 Z"/>
         <path fill="rgb(231,52,11)" stroke="none" d="M 4739,3291 L 4744,3295 4298,3741 4293,3737 4739,3291 Z"/>
         <path fill="rgb(230,51,11)" stroke="none" d="M 4744,3295 L 4748,3300 4302,3746 4298,3741 4744,3295 Z"/>
         <path fill="rgb(230,50,12)" stroke="none" d="M 4748,3300 L 4753,3304 4307,3750 4302,3746 4748,3300 Z"/>
         <path fill="rgb(229,50,12)" stroke="none" d="M 4753,3304 L 4757,3309 4311,3755 4307,3750 4753,3304 Z"/>
         <path fill="rgb(229,49,12)" stroke="none" d="M 4757,3309 L 4762,3313 4316,3760 4311,3755 4757,3309 Z"/>
         <path fill="rgb(228,48,12)" stroke="none" d="M 4762,3313 L 4766,3318 4320,3764 4316,3760 4762,3313 Z"/>
         <path fill="rgb(228,47,12)" stroke="none" d="M 4766,3318 L 4771,3322 4325,3769 4320,3764 4766,3318 Z"/>
         <path fill="rgb(227,46,12)" stroke="none" d="M 4771,3322 L 4775,3327 4329,3773 4325,3769 4771,3322 Z"/>
         <path fill="rgb(227,45,12)" stroke="none" d="M 4775,3327 L 4780,3331 4334,3778 4329,3773 4775,3327 Z"/>
         <path fill="rgb(226,44,12)" stroke="none" d="M 4780,3331 L 4784,3336 4338,3782 4334,3778 4780,3331 Z"/>
         <path fill="rgb(226,43,13)" stroke="none" d="M 4784,3336 L 4789,3340 4343,3787 4338,3782 4784,3336 Z"/>
         <path fill="rgb(226,43,13)" stroke="none" d="M 4789,3340 L 4793,3345 4347,3791 4343,3787 4789,3340 Z"/>
         <path fill="rgb(225,42,13)" stroke="none" d="M 4793,3345 L 4798,3349 4352,3796 4347,3791 4793,3345 Z"/>
         <path fill="rgb(225,41,13)" stroke="none" d="M 4798,3349 L 4802,3354 4356,3800 4352,3796 4798,3349 Z"/>
         <path fill="rgb(224,40,13)" stroke="none" d="M 4802,3354 L 4807,3358 4361,3805 4356,3800 4802,3354 Z"/>
         <path fill="rgb(224,39,13)" stroke="none" d="M 4807,3358 L 4811,3363 4365,3809 4361,3805 4807,3358 Z"/>
         <path fill="rgb(223,38,13)" stroke="none" d="M 4811,3363 L 4816,3367 4370,3814 4365,3809 4811,3363 Z"/>
         <path fill="rgb(223,37,13)" stroke="none" d="M 4816,3367 L 4820,3372 4374,3818 4370,3814 4816,3367 Z"/>
         <path fill="rgb(222,37,13)" stroke="none" d="M 4820,3372 L 4825,3376 4379,3823 4374,3818 4820,3372 Z"/>
         <path fill="rgb(222,36,14)" stroke="none" d="M 4825,3376 L 4829,3381 4383,3827 4379,3823 4825,3376 Z"/>
         <path fill="rgb(221,35,14)" stroke="none" d="M 4829,3381 L 4834,3385 4388,3832 4383,3827 4829,3381 Z"/>
         <path fill="rgb(221,34,14)" stroke="none" d="M 4834,3385 L 4838,3390 4392,3836 4388,3832 4834,3385 Z"/>
         <path fill="rgb(220,33,14)" stroke="none" d="M 4838,3390 L 4843,3394 4397,3841 4392,3836 4838,3390 Z"/>
         <path fill="rgb(220,32,14)" stroke="none" d="M 4843,3394 L 4847,3399 4401,3845 4397,3841 4843,3394 Z"/>
         <path fill="rgb(219,31,14)" stroke="none" d="M 4847,3399 L 4852,3403 4406,3850 4401,3845 4847,3399 Z"/>
         <path fill="rgb(219,31,14)" stroke="none" d="M 4852,3403 L 4856,3408 4410,3854 4406,3850 4852,3403 Z"/>
         <path fill="rgb(218,30,14)" stroke="none" d="M 4856,3408 L 4861,3412 4415,3859 4410,3854 4856,3408 Z"/>
         <path fill="rgb(218,29,14)" stroke="none" d="M 4861,3412 L 4865,3417 4419,3863 4415,3859 4861,3412 Z"/>
         <path fill="rgb(217,28,15)" stroke="none" d="M 4865,3417 L 4870,3421 4424,3868 4419,3863 4865,3417 Z"/>
         <path fill="rgb(217,27,15)" stroke="none" d="M 4870,3421 L 4874,3426 4428,3872 4424,3868 4870,3421 Z"/>
         <path fill="rgb(216,26,15)" stroke="none" d="M 4874,3426 L 4879,3430 4433,3877 4428,3872 4874,3426 Z"/>
         <path fill="rgb(216,25,15)" stroke="none" d="M 4879,3430 L 4883,3435 4437,3881 4433,3877 4879,3430 Z"/>
         <path fill="rgb(215,24,15)" stroke="none" d="M 4883,3435 L 4888,3439 4442,3886 4437,3881 4883,3435 Z"/>
         <path fill="rgb(215,24,15)" stroke="none" d="M 4888,3439 L 4892,3444 4446,3890 4442,3886 4888,3439 Z"/>
         <path fill="rgb(215,23,15)" stroke="none" d="M 4892,3444 L 4897,3448 4451,3895 4446,3890 4892,3444 Z"/>
         <path fill="rgb(214,22,15)" stroke="none" d="M 4897,3448 L 4901,3453 4455,3899 4451,3895 4897,3448 Z"/>
         <path fill="rgb(214,21,15)" stroke="none" d="M 4901,3453 L 4906,3457 4460,3904 4455,3899 4901,3453 Z"/>
         <path fill="rgb(213,20,16)" stroke="none" d="M 4906,3457 L 4910,3462 4464,3908 4460,3904 4906,3457 Z"/>
         <path fill="rgb(213,19,16)" stroke="none" d="M 4910,3462 L 4915,3466 4469,3913 4464,3908 4910,3462 Z"/>
         <path fill="rgb(212,18,16)" stroke="none" d="M 4915,3466 L 4919,3471 4473,3917 4469,3913 4915,3466 Z"/>
         <path fill="rgb(212,18,16)" stroke="none" d="M 4919,3471 L 4924,3475 4478,3922 4473,3917 4919,3471 Z"/>
         <path fill="rgb(211,17,16)" stroke="none" d="M 4924,3475 L 4928,3480 4482,3926 4478,3922 4924,3475 Z"/>
         <path fill="rgb(211,16,16)" stroke="none" d="M 4928,3480 L 4933,3484 4487,3931 4482,3926 4928,3480 Z"/>
         <path fill="rgb(210,15,16)" stroke="none" d="M 4933,3484 L 4937,3489 4491,3935 4487,3931 4933,3484 Z"/>
         <path fill="rgb(210,14,16)" stroke="none" d="M 4937,3489 L 4942,3493 4496,3940 4491,3935 4937,3489 Z"/>
         <path fill="rgb(209,13,17)" stroke="none" d="M 4942,3493 L 4946,3498 4500,3944 4496,3940 4942,3493 Z"/>
         <path fill="rgb(209,12,17)" stroke="none" d="M 4946,3498 L 4951,3503 4505,3949 4500,3944 4946,3498 Z"/>
         <path fill="rgb(208,12,17)" stroke="none" d="M 4951,3503 L 4955,3507 4509,3953 4505,3949 4951,3503 Z"/>
         <path fill="rgb(208,11,17)" stroke="none" d="M 4955,3507 L 4960,3512 4514,3958 4509,3953 4955,3507 Z"/>
         <path fill="rgb(207,10,17)" stroke="none" d="M 4960,3512 L 4964,3516 4518,3962 4514,3958 4960,3512 Z"/>
         <path fill="rgb(207,9,17)" stroke="none" d="M 4964,3516 L 4969,3521 4523,3967 4518,3962 4964,3516 Z"/>
         <path fill="rgb(206,8,17)" stroke="none" d="M 4969,3521 L 4974,3525 4527,3971 4523,3967 4969,3521 Z"/>
         <path fill="rgb(206,7,17)" stroke="none" d="M 4974,3525 L 4978,3530 4532,3976 4527,3971 4974,3525 Z"/>
         <path fill="rgb(205,6,17)" stroke="none" d="M 4978,3530 L 4983,3534 4536,3980 4532,3976 4978,3530 Z"/>
         <path fill="rgb(205,5,18)" stroke="none" d="M 4983,3534 L 4987,3539 4541,3985 4536,3980 4983,3534 Z"/>
         <path fill="rgb(204,5,18)" stroke="none" d="M 4987,3539 L 4992,3543 4545,3989 4541,3985 4987,3539 Z"/>
         <path fill="rgb(204,4,18)" stroke="none" d="M 4992,3543 L 4996,3548 4550,3994 4545,3989 4992,3543 Z"/>
         <path fill="rgb(203,3,18)" stroke="none" d="M 4996,3548 L 5001,3552 4554,3998 4550,3994 4996,3548 Z"/>
        </g>
        <path fill="none" stroke="rgb(189,0,0)" stroke-width="9" stroke-linejoin="miter" d="M 4792,3343 L 4661,3213 4504,3371 4346,3213 4215,3343 4373,3501 4215,3659 4346,3790 4504,3632 4661,3790 4792,3659 4634,3501 4792,3343 Z"/>
       </g>
      </g>
     </g>
    </g>
   </g>
  </g>
 </g>
</svg>