<?xml version="1.0" encoding="UTF-8"?>
<!DOCTYPE svg PUBLIC "-//W3C//DTD SVG 1.1//EN" "http://www.w3.org/Graphics/SVG/1.1/DTD/svg11.dtd">
<svg version="1.2" width="10mm" height="10mm" viewBox="2000 2000 1000 1000" preserveAspectRatio="xMidYMid" fill-rule="evenodd" stroke-width="28.222" stroke-linejoin="round" xmlns="http://www.w3.org/2000/svg" xmlns:ooo="http://xml.openoffice.org/svg/export" xmlns:xlink="http://www.w3.org/1999/xlink" xmlns:presentation="http://sun.com/xmlns/staroffice/presentation" xmlns:smil="http://www.w3.org/2001/SMIL20/" xmlns:anim="urn:oasis:names:tc:opendocument:xmlns:animation:1.0" xml:space="preserve">
 <defs class="ClipPathGroup">
  <clipPath id="presentation_clip_path" clipPathUnits="userSpaceOnUse">
   <rect x="2000" y="2000" width="1000" height="1000"/>
  </clipPath>
  <clipPath id="presentation_clip_path_shrink" clipPathUnits="userSpaceOnUse">
   <rect x="2001" y="2001" width="998" height="998"/>
  </clipPath>
 </defs>
 <defs class="TextShapeIndex">
  <g ooo:slide="id1" ooo:id-list="id3"/>
 </defs>
 <defs class="EmbeddedBulletChars">
  <g id="bullet-char-template-57356" transform="scale(0.00048828125,-0.00048828125)">
   <path d="M 580,1141 L 1163,571 580,0 -4,571 580,1141 Z"/>
  </g>
  <g id="bullet-char-template-57354" transform="scale(0.00048828125,-0.00048828125)">
   <path d="M 8,1128 L 1137,1128 1137,0 8,0 8,1128 Z"/>
  </g>
  <g id="bullet-char-template-10146" transform="scale(0.00048828125,-0.00048828125)">
   <path d="M 174,0 L 602,739 174,1481 1456,739 174,0 Z M 1358,739 L 309,1346 659,739 1358,739 Z"/>
  </g>
  <g id="bullet-char-template-10132" transform="scale(0.00048828125,-0.00048828125)">
   <path d="M 2015,739 L 1276,0 717,0 1260,543 174,543 174,936 1260,936 717,1481 1274,1481 2015,739 Z"/>
  </g>
  <g id="bullet-char-template-10007" transform="scale(0.00048828125,-0.00048828125)">
   <path d="M 0,-2 C -7,14 -16,27 -25,37 L 356,567 C 262,823 215,952 215,954 215,979 228,992 255,992 264,992 276,990 289,987 310,991 331,999 354,1012 L 381,999 492,748 772,1049 836,1024 860,1049 C 881,1039 901,1025 922,1006 886,937 835,863 770,784 769,783 710,716 594,584 L 774,223 C 774,196 753,168 711,139 L 727,119 C 717,90 699,76 672,76 641,76 570,178 457,381 L 164,-76 C 142,-110 111,-127 72,-127 30,-127 9,-110 8,-76 1,-67 -2,-52 -2,-32 -2,-23 -1,-13 0,-2 Z"/>
  </g>
  <g id="bullet-char-template-10004" transform="scale(0.00048828125,-0.00048828125)">
   <path d="M 285,-33 C 182,-33 111,30 74,156 52,228 41,333 41,471 41,549 55,616 82,672 116,743 169,778 240,778 293,778 328,747 346,684 L 369,508 C 377,444 397,411 428,410 L 1163,1116 C 1174,1127 1196,1133 1229,1133 1271,1133 1292,1118 1292,1087 L 1292,965 C 1292,929 1282,901 1262,881 L 442,47 C 390,-6 338,-33 285,-33 Z"/>
  </g>
  <g id="bullet-char-template-9679" transform="scale(0.00048828125,-0.00048828125)">
   <path d="M 813,0 C 632,0 489,54 383,161 276,268 223,411 223,592 223,773 276,916 383,1023 489,1130 632,1184 813,1184 992,1184 1136,1130 1245,1023 1353,916 1407,772 1407,592 1407,412 1353,268 1245,161 1136,54 992,0 813,0 Z"/>
  </g>
  <g id="bullet-char-template-8226" transform="scale(0.00048828125,-0.00048828125)">
   <path d="M 346,457 C 273,457 209,483 155,535 101,586 74,649 74,723 74,796 101,859 155,911 209,963 273,989 346,989 419,989 480,963 531,910 582,859 608,796 608,723 608,648 583,586 532,535 482,483 420,457 346,457 Z"/>
  </g>
  <g id="bullet-char-template-8211" transform="scale(0.00048828125,-0.00048828125)">
   <path d="M -4,459 L 1135,459 1135,606 -4,606 -4,459 Z"/>
  </g>
  <g id="bullet-char-template-61548" transform="scale(0.00048828125,-0.00048828125)">
   <path d="M 173,740 C 173,903 231,1043 346,1159 462,1274 601,1332 765,1332 928,1332 1067,1274 1183,1159 1299,1043 1357,903 1357,740 1357,577 1299,437 1183,322 1067,206 928,148 765,148 601,148 462,206 346,322 231,437 173,577 173,740 Z"/>
  </g>
 </defs>
 <defs class="TextEmbeddedBitmaps"/>
 <g class="SlideGroup">
  <g>
   <g id="container-id1">
    <g id="id1" class="Slide" clip-path="url(#presentation_clip_path)">
     <g class="Page">
      <g class="Graphic">
       <g id="id3">
        <rect class="BoundingBox" stroke="none" fill="none" x="2000" y="2000" width="1001" height="1001"/>
        <defs>
         <clipPath id="clip_path_1" clipPathUnits="userSpaceOnUse">
          <path d="M 2610,2180 C 2610,2180 2157,2642 2153,2646 2149,2648 2148,2654 2145,2682 L 2128,2833 C 2128,2833 2128,2833 2128,2834 2128,2836 2128,2838 2130,2840 2132,2842 2135,2843 2138,2843 L 2316,2819 C 2318,2818 2320,2817 2321,2816 L 2781,2348 C 2808,2319 2808,2274 2780,2246 L 2712,2179 C 2683,2151 2638,2152 2610,2180 L 2610,2180 Z"/>
         </clipPath>
        </defs>
        <g clip-path="url(#clip_path_1)">
         <path fill="rgb(90,61,28)" stroke="none" d="M 2655,2089 L 2659,2093 1972,2641 1968,2637 2655,2089 Z"/>
         <path fill="rgb(91,62,28)" stroke="none" d="M 2657,2091 L 2660,2095 1973,2643 1970,2639 2657,2091 Z"/>
         <path fill="rgb(92,62,28)" stroke="none" d="M 2659,2093 L 2662,2098 1975,2645 1971,2641 2659,2093 Z"/>
         <path fill="rgb(92,63,29)" stroke="none" d="M 2660,2095 L 2664,2100 1977,2648 1973,2643 2660,2095 Z"/>
         <path fill="rgb(93,63,29)" stroke="none" d="M 2662,2097 L 2665,2102 1978,2650 1975,2645 2662,2097 Z"/>
         <path fill="rgb(94,64,29)" stroke="none" d="M 2664,2099 L 2667,2104 1980,2652 1976,2647 2664,2099 Z"/>
         <path fill="rgb(95,64,29)" stroke="none" d="M 2665,2101 L 2669,2106 1982,2654 1978,2649 2665,2101 Z"/>
         <path fill="rgb(96,65,30)" stroke="none" d="M 2667,2103 L 2670,2108 1983,2656 1980,2651 2667,2103 Z"/>
         <path fill="rgb(97,65,30)" stroke="none" d="M 2669,2106 L 2672,2110 1985,2658 1981,2653 2669,2106 Z"/>
         <path fill="rgb(97,66,30)" stroke="none" d="M 2670,2108 L 2674,2112 1987,2660 1983,2656 2670,2108 Z"/>
         <path fill="rgb(98,66,30)" stroke="none" d="M 2672,2110 L 2675,2114 1988,2662 1985,2658 2672,2110 Z"/>
         <path fill="rgb(99,67,30)" stroke="none" d="M 2673,2112 L 2677,2116 1990,2664 1986,2660 2673,2112 Z"/>
         <path fill="rgb(100,67,31)" stroke="none" d="M 2675,2114 L 2679,2118 1991,2666 1988,2662 2675,2114 Z"/>
         <path fill="rgb(101,68,31)" stroke="none" d="M 2677,2116 L 2680,2120 1993,2668 1990,2664 2677,2116 Z"/>
         <path fill="rgb(102,68,31)" stroke="none" d="M 2678,2118 L 2682,2122 1995,2670 1991,2666 2678,2118 Z"/>
         <path fill="rgb(102,69,31)" stroke="none" d="M 2680,2120 L 2684,2125 1996,2672 1993,2668 2680,2120 Z"/>
         <path fill="rgb(103,69,32)" stroke="none" d="M 2682,2122 L 2685,2127 1998,2675 1995,2670 2682,2122 Z"/>
         <path fill="rgb(104,70,32)" stroke="none" d="M 2683,2124 L 2687,2129 2000,2677 1996,2672 2683,2124 Z"/>
         <path fill="rgb(105,70,32)" stroke="none" d="M 2685,2126 L 2689,2131 2001,2679 1998,2674 2685,2126 Z"/>
         <path fill="rgb(106,71,32)" stroke="none" d="M 2687,2128 L 2690,2133 2003,2681 2000,2676 2687,2128 Z"/>
         <path fill="rgb(107,72,32)" stroke="none" d="M 2688,2130 L 2692,2135 2005,2683 2001,2678 2688,2130 Z"/>
         <path fill="rgb(107,72,33)" stroke="none" d="M 2690,2133 L 2694,2137 2006,2685 2003,2680 2690,2133 Z"/>
         <path fill="rgb(108,73,33)" stroke="none" d="M 2692,2135 L 2695,2139 2008,2687 2004,2683 2692,2135 Z"/>
         <path fill="rgb(109,73,33)" stroke="none" d="M 2693,2137 L 2697,2141 2010,2689 2006,2685 2693,2137 Z"/>
         <path fill="rgb(110,74,33)" stroke="none" d="M 2695,2139 L 2699,2143 2011,2691 2008,2687 2695,2139 Z"/>
         <path fill="rgb(111,74,34)" stroke="none" d="M 2697,2141 L 2700,2145 2013,2693 2009,2689 2697,2141 Z"/>
         <path fill="rgb(112,75,34)" stroke="none" d="M 2698,2143 L 2702,2147 2015,2695 2011,2691 2698,2143 Z"/>
         <path fill="rgb(112,75,34)" stroke="none" d="M 2700,2145 L 2704,2149 2016,2697 2013,2693 2700,2145 Z"/>
         <path fill="rgb(113,76,34)" stroke="none" d="M 2702,2147 L 2705,2152 2018,2699 2014,2695 2702,2147 Z"/>
         <path fill="rgb(114,76,34)" stroke="none" d="M 2703,2149 L 2707,2154 2020,2701 2016,2697 2703,2149 Z"/>
         <path fill="rgb(115,77,35)" stroke="none" d="M 2705,2151 L 2708,2156 2021,2704 2018,2699 2705,2151 Z"/>
         <path fill="rgb(116,77,35)" stroke="none" d="M 2707,2153 L 2710,2158 2023,2706 2019,2701 2707,2153 Z"/>
         <path fill="rgb(117,78,35)" stroke="none" d="M 2708,2155 L 2712,2160 2025,2708 2021,2703 2708,2155 Z"/>
         <path fill="rgb(117,78,35)" stroke="none" d="M 2710,2157 L 2713,2162 2026,2710 2023,2705 2710,2157 Z"/>
         <path fill="rgb(118,79,35)" stroke="none" d="M 2712,2160 L 2715,2164 2028,2712 2024,2707 2712,2160 Z"/>
         <path fill="rgb(119,79,36)" stroke="none" d="M 2713,2162 L 2717,2166 2030,2714 2026,2710 2713,2162 Z"/>
         <path fill="rgb(120,80,36)" stroke="none" d="M 2715,2164 L 2718,2168 2031,2716 2028,2712 2715,2164 Z"/>
         <path fill="rgb(121,80,36)" stroke="none" d="M 2717,2166 L 2720,2170 2033,2718 2029,2714 2717,2166 Z"/>
         <path fill="rgb(122,81,36)" stroke="none" d="M 2718,2168 L 2722,2172 2035,2720 2031,2716 2718,2168 Z"/>
         <path fill="rgb(122,81,37)" stroke="none" d="M 2720,2170 L 2723,2174 2036,2722 2033,2718 2720,2170 Z"/>
         <path fill="rgb(123,82,37)" stroke="none" d="M 2721,2172 L 2725,2176 2038,2724 2034,2720 2721,2172 Z"/>
         <path fill="rgb(124,83,37)" stroke="none" d="M 2723,2174 L 2727,2178 2039,2726 2036,2722 2723,2174 Z"/>
         <path fill="rgb(125,83,37)" stroke="none" d="M 2725,2176 L 2728,2181 2041,2728 2038,2724 2725,2176 Z"/>
         <path fill="rgb(126,84,37)" stroke="none" d="M 2726,2178 L 2730,2183 2043,2731 2039,2726 2726,2178 Z"/>
         <path fill="rgb(127,84,38)" stroke="none" d="M 2728,2180 L 2732,2185 2044,2733 2041,2728 2728,2180 Z"/>
         <path fill="rgb(127,85,38)" stroke="none" d="M 2730,2182 L 2733,2187 2046,2735 2043,2730 2730,2182 Z"/>
         <path fill="rgb(128,85,38)" stroke="none" d="M 2731,2184 L 2735,2189 2048,2737 2044,2732 2731,2184 Z"/>
         <path fill="rgb(129,86,38)" stroke="none" d="M 2733,2186 L 2737,2191 2049,2739 2046,2734 2733,2186 Z"/>
         <path fill="rgb(130,86,39)" stroke="none" d="M 2735,2189 L 2738,2193 2051,2741 2048,2736 2735,2189 Z"/>
         <path fill="rgb(131,87,39)" stroke="none" d="M 2736,2191 L 2740,2195 2053,2743 2049,2739 2736,2191 Z"/>
         <path fill="rgb(132,87,39)" stroke="none" d="M 2738,2193 L 2742,2197 2054,2745 2051,2741 2738,2193 Z"/>
         <path fill="rgb(132,88,39)" stroke="none" d="M 2740,2195 L 2743,2199 2056,2747 2052,2743 2740,2195 Z"/>
         <path fill="rgb(133,88,39)" stroke="none" d="M 2741,2197 L 2745,2201 2058,2749 2054,2745 2741,2197 Z"/>
         <path fill="rgb(134,89,40)" stroke="none" d="M 2743,2199 L 2747,2203 2059,2751 2056,2747 2743,2199 Z"/>
         <path fill="rgb(135,89,40)" stroke="none" d="M 2745,2201 L 2748,2205 2061,2753 2057,2749 2745,2201 Z"/>
         <path fill="rgb(136,90,40)" stroke="none" d="M 2746,2203 L 2750,2208 2063,2755 2059,2751 2746,2203 Z"/>
         <path fill="rgb(137,90,40)" stroke="none" d="M 2748,2205 L 2751,2210 2064,2758 2061,2753 2748,2205 Z"/>
         <path fill="rgb(137,91,41)" stroke="none" d="M 2750,2207 L 2753,2212 2066,2760 2062,2755 2750,2207 Z"/>
         <path fill="rgb(138,91,41)" stroke="none" d="M 2751,2209 L 2755,2214 2068,2762 2064,2757 2751,2209 Z"/>
         <path fill="rgb(139,92,41)" stroke="none" d="M 2753,2211 L 2756,2216 2069,2764 2066,2759 2753,2211 Z"/>
         <path fill="rgb(138,91,41)" stroke="none" d="M 2755,2214 L 2758,2218 2071,2766 2067,2761 2755,2214 Z"/>
         <path fill="rgb(137,91,41)" stroke="none" d="M 2756,2216 L 2760,2220 2073,2768 2069,2764 2756,2216 Z"/>
         <path fill="rgb(137,90,40)" stroke="none" d="M 2758,2218 L 2762,2222 2074,2770 2071,2766 2758,2218 Z"/>
         <path fill="rgb(136,90,40)" stroke="none" d="M 2760,2220 L 2763,2224 2076,2772 2072,2768 2760,2220 Z"/>
         <path fill="rgb(135,89,40)" stroke="none" d="M 2761,2222 L 2765,2226 2078,2774 2074,2770 2761,2222 Z"/>
         <path fill="rgb(134,89,40)" stroke="none" d="M 2763,2224 L 2767,2229 2079,2777 2076,2772 2763,2224 Z"/>
         <path fill="rgb(133,88,39)" stroke="none" d="M 2765,2226 L 2768,2231 2081,2779 2078,2774 2765,2226 Z"/>
         <path fill="rgb(132,88,39)" stroke="none" d="M 2766,2228 L 2770,2233 2083,2781 2079,2776 2766,2228 Z"/>
         <path fill="rgb(132,87,39)" stroke="none" d="M 2768,2230 L 2772,2235 2084,2783 2081,2778 2768,2230 Z"/>
         <path fill="rgb(131,87,39)" stroke="none" d="M 2770,2233 L 2773,2237 2086,2785 2083,2781 2770,2233 Z"/>
         <path fill="rgb(130,86,39)" stroke="none" d="M 2772,2235 L 2775,2239 2088,2787 2084,2783 2772,2235 Z"/>
         <path fill="rgb(129,86,38)" stroke="none" d="M 2773,2237 L 2777,2241 2090,2789 2086,2785 2773,2237 Z"/>
         <path fill="rgb(128,85,38)" stroke="none" d="M 2775,2239 L 2778,2243 2091,2791 2088,2787 2775,2239 Z"/>
         <path fill="rgb(127,85,38)" stroke="none" d="M 2777,2241 L 2780,2246 2093,2793 2089,2789 2777,2241 Z"/>
         <path fill="rgb(127,84,38)" stroke="none" d="M 2778,2243 L 2782,2248 2095,2796 2091,2791 2778,2243 Z"/>
         <path fill="rgb(126,84,37)" stroke="none" d="M 2780,2245 L 2784,2250 2096,2798 2093,2793 2780,2245 Z"/>
         <path fill="rgb(125,83,37)" stroke="none" d="M 2782,2247 L 2785,2252 2098,2800 2094,2795 2782,2247 Z"/>
         <path fill="rgb(124,83,37)" stroke="none" d="M 2783,2250 L 2787,2254 2100,2802 2096,2797 2783,2250 Z"/>
         <path fill="rgb(123,82,37)" stroke="none" d="M 2785,2252 L 2789,2256 2101,2804 2098,2800 2785,2252 Z"/>
         <path fill="rgb(122,81,37)" stroke="none" d="M 2787,2254 L 2790,2258 2103,2806 2100,2802 2787,2254 Z"/>
         <path fill="rgb(122,81,36)" stroke="none" d="M 2788,2256 L 2792,2260 2105,2808 2101,2804 2788,2256 Z"/>
         <path fill="rgb(121,80,36)" stroke="none" d="M 2790,2258 L 2794,2263 2106,2810 2103,2806 2790,2258 Z"/>
         <path fill="rgb(120,80,36)" stroke="none" d="M 2792,2260 L 2795,2265 2108,2813 2105,2808 2792,2260 Z"/>
         <path fill="rgb(119,79,36)" stroke="none" d="M 2793,2262 L 2797,2267 2110,2815 2106,2810 2793,2262 Z"/>
         <path fill="rgb(118,79,35)" stroke="none" d="M 2795,2264 L 2799,2269 2112,2817 2108,2812 2795,2264 Z"/>
         <path fill="rgb(117,78,35)" stroke="none" d="M 2797,2267 L 2800,2271 2113,2819 2110,2814 2797,2267 Z"/>
         <path fill="rgb(117,78,35)" stroke="none" d="M 2799,2269 L 2802,2273 2115,2821 2111,2817 2799,2269 Z"/>
         <path fill="rgb(116,77,35)" stroke="none" d="M 2800,2271 L 2804,2275 2117,2823 2113,2819 2800,2271 Z"/>
         <path fill="rgb(115,77,35)" stroke="none" d="M 2802,2273 L 2805,2277 2118,2825 2115,2821 2802,2273 Z"/>
         <path fill="rgb(114,76,34)" stroke="none" d="M 2804,2275 L 2807,2279 2120,2827 2116,2823 2804,2275 Z"/>
         <path fill="rgb(113,76,34)" stroke="none" d="M 2805,2277 L 2809,2282 2122,2829 2118,2825 2805,2277 Z"/>
         <path fill="rgb(112,75,34)" stroke="none" d="M 2807,2279 L 2811,2284 2123,2832 2120,2827 2807,2279 Z"/>
         <path fill="rgb(112,75,34)" stroke="none" d="M 2809,2281 L 2812,2286 2125,2834 2121,2829 2809,2281 Z"/>
         <path fill="rgb(111,74,34)" stroke="none" d="M 2810,2283 L 2814,2288 2127,2836 2123,2831 2810,2283 Z"/>
         <path fill="rgb(110,74,33)" stroke="none" d="M 2812,2286 L 2816,2290 2128,2838 2125,2833 2812,2286 Z"/>
         <path fill="rgb(109,73,33)" stroke="none" d="M 2814,2288 L 2817,2292 2130,2840 2127,2836 2814,2288 Z"/>
         <path fill="rgb(108,73,33)" stroke="none" d="M 2815,2290 L 2819,2294 2132,2842 2128,2838 2815,2290 Z"/>
         <path fill="rgb(107,72,33)" stroke="none" d="M 2817,2292 L 2821,2296 2133,2844 2130,2840 2817,2292 Z"/>
         <path fill="rgb(107,72,32)" stroke="none" d="M 2819,2294 L 2822,2299 2135,2846 2132,2842 2819,2294 Z"/>
         <path fill="rgb(106,71,32)" stroke="none" d="M 2821,2296 L 2824,2301 2137,2849 2133,2844 2821,2296 Z"/>
         <path fill="rgb(105,70,32)" stroke="none" d="M 2822,2298 L 2826,2303 2139,2851 2135,2846 2822,2298 Z"/>
         <path fill="rgb(104,70,32)" stroke="none" d="M 2824,2300 L 2827,2305 2140,2853 2137,2848 2824,2300 Z"/>
         <path fill="rgb(103,69,32)" stroke="none" d="M 2826,2303 L 2829,2307 2142,2855 2138,2850 2826,2303 Z"/>
         <path fill="rgb(102,69,31)" stroke="none" d="M 2827,2305 L 2831,2309 2144,2857 2140,2853 2827,2305 Z"/>
         <path fill="rgb(102,68,31)" stroke="none" d="M 2829,2307 L 2833,2311 2145,2859 2142,2855 2829,2307 Z"/>
         <path fill="rgb(101,68,31)" stroke="none" d="M 2831,2309 L 2834,2313 2147,2861 2143,2857 2831,2309 Z"/>
         <path fill="rgb(100,67,31)" stroke="none" d="M 2832,2311 L 2836,2315 2149,2863 2145,2859 2832,2311 Z"/>
         <path fill="rgb(99,67,30)" stroke="none" d="M 2834,2313 L 2838,2318 2150,2866 2147,2861 2834,2313 Z"/>
         <path fill="rgb(98,66,30)" stroke="none" d="M 2836,2315 L 2839,2320 2152,2868 2149,2863 2836,2315 Z"/>
         <path fill="rgb(97,66,30)" stroke="none" d="M 2837,2317 L 2841,2322 2154,2870 2150,2865 2837,2317 Z"/>
         <path fill="rgb(97,65,30)" stroke="none" d="M 2839,2319 L 2843,2324 2155,2872 2152,2867 2839,2319 Z"/>
         <path fill="rgb(96,65,30)" stroke="none" d="M 2841,2322 L 2844,2326 2157,2874 2154,2870 2841,2322 Z"/>
         <path fill="rgb(95,64,29)" stroke="none" d="M 2842,2324 L 2846,2328 2159,2876 2155,2872 2842,2324 Z"/>
         <path fill="rgb(94,64,29)" stroke="none" d="M 2844,2326 L 2848,2330 2161,2878 2157,2874 2844,2326 Z"/>
         <path fill="rgb(93,63,29)" stroke="none" d="M 2846,2328 L 2849,2332 2162,2880 2159,2876 2846,2328 Z"/>
         <path fill="rgb(92,63,29)" stroke="none" d="M 2848,2330 L 2851,2335 2164,2882 2160,2878 2848,2330 Z"/>
         <path fill="rgb(92,62,28)" stroke="none" d="M 2849,2332 L 2853,2337 2166,2885 2162,2880 2849,2332 Z"/>
         <path fill="rgb(91,62,28)" stroke="none" d="M 2851,2334 L 2854,2339 2167,2887 2164,2882 2851,2334 Z"/>
         <path fill="rgb(90,61,28)" stroke="none" d="M 2853,2336 L 2881,2372 2194,2920 2165,2884 2853,2336 Z"/>
        </g>
        <path fill="rgb(137,92,41)" stroke="none" d="M 2661,2150 C 2639,2150 2619,2158 2603,2174 L 2556,2222 2556,2222 2144,2642 C 2141,2645 2139,2649 2139,2653 L 2118,2831 C 2118,2837 2120,2843 2124,2847 2127,2850 2132,2852 2137,2852 2138,2852 2138,2852 2139,2852 L 2317,2828 C 2321,2827 2325,2825 2328,2822 L 2740,2402 2787,2354 C 2802,2339 2811,2318 2810,2296 2810,2275 2802,2254 2786,2239 L 2718,2173 C 2718,2173 2718,2173 2718,2173 2703,2158 2683,2150 2661,2150 Z M 2583,2221 L 2617,2187 C 2629,2174 2645,2168 2661,2168 2677,2168 2693,2174 2705,2186 L 2773,2252 C 2786,2265 2792,2281 2792,2297 2792,2313 2786,2329 2774,2341 L 2727,2389 2315,2810 2137,2834 2157,2655 2557,2248 2560,2244 2570,2235 2579,2225 2583,2221 Z"/>
        <path fill="rgb(249,180,6)" stroke="none" d="M 2521,2599 L 2315,2810 2157,2655 2570,2235 2727,2389 2521,2599 Z"/>
        <path fill="rgb(255,201,67)" stroke="none" d="M 2400,2481 L 2194,2691 2157,2655 2570,2235 2607,2271 2400,2481 Z"/>
        <path fill="rgb(206,128,13)" stroke="none" d="M 2521,2599 L 2315,2810 2278,2773 2690,2353 2727,2389 2521,2599 Z"/>
        <defs>
         <clipPath id="clip_path_2" clipPathUnits="userSpaceOnUse">
          <path d="M 2773,2252 C 2798,2277 2798,2317 2774,2341 L 2727,2389 C 2697,2359 2608,2273 2570,2235 L 2617,2187 C 2641,2162 2681,2162 2705,2186 L 2773,2252 2773,2252 Z"/>
         </clipPath>
        </defs>
        <g clip-path="url(#clip_path_2)">
         <path fill="rgb(151,43,40)" stroke="none" d="M 2732,2409 L 2728,2404 2828,2311 2832,2315 2732,2409 Z"/>
         <path fill="rgb(152,44,41)" stroke="none" d="M 2730,2407 L 2726,2402 2826,2309 2830,2313 2730,2407 Z"/>
         <path fill="rgb(153,44,41)" stroke="none" d="M 2729,2405 L 2724,2400 2824,2307 2828,2312 2729,2405 Z"/>
         <path fill="rgb(154,45,42)" stroke="none" d="M 2727,2403 L 2722,2398 2822,2305 2827,2310 2727,2403 Z"/>
         <path fill="rgb(155,45,43)" stroke="none" d="M 2725,2401 L 2721,2396 2821,2303 2825,2308 2725,2401 Z"/>
         <path fill="rgb(156,46,43)" stroke="none" d="M 2723,2399 L 2719,2394 2819,2301 2823,2306 2723,2399 Z"/>
         <path fill="rgb(157,47,44)" stroke="none" d="M 2721,2397 L 2717,2393 2817,2299 2821,2304 2721,2397 Z"/>
         <path fill="rgb(158,47,45)" stroke="none" d="M 2719,2395 L 2715,2391 2815,2297 2819,2302 2719,2395 Z"/>
         <path fill="rgb(159,48,45)" stroke="none" d="M 2718,2393 L 2713,2389 2813,2295 2818,2300 2718,2393 Z"/>
         <path fill="rgb(161,48,46)" stroke="none" d="M 2716,2391 L 2712,2387 2812,2293 2816,2298 2716,2391 Z"/>
         <path fill="rgb(162,49,46)" stroke="none" d="M 2714,2389 L 2710,2385 2810,2291 2814,2296 2714,2389 Z"/>
         <path fill="rgb(163,50,47)" stroke="none" d="M 2712,2387 L 2708,2383 2808,2289 2812,2294 2712,2387 Z"/>
         <path fill="rgb(164,50,48)" stroke="none" d="M 2710,2385 L 2706,2381 2806,2287 2810,2292 2710,2385 Z"/>
         <path fill="rgb(165,51,48)" stroke="none" d="M 2709,2383 L 2704,2379 2804,2286 2808,2290 2709,2383 Z"/>
         <path fill="rgb(166,51,49)" stroke="none" d="M 2707,2381 L 2702,2377 2802,2284 2807,2288 2707,2381 Z"/>
         <path fill="rgb(167,52,50)" stroke="none" d="M 2705,2380 L 2701,2375 2801,2282 2805,2286 2705,2380 Z"/>
         <path fill="rgb(168,53,50)" stroke="none" d="M 2703,2378 L 2699,2373 2799,2280 2803,2284 2703,2378 Z"/>
         <path fill="rgb(169,53,51)" stroke="none" d="M 2701,2376 L 2697,2371 2797,2278 2801,2282 2701,2376 Z"/>
         <path fill="rgb(170,54,52)" stroke="none" d="M 2699,2374 L 2695,2369 2795,2276 2799,2280 2699,2374 Z"/>
         <path fill="rgb(171,55,52)" stroke="none" d="M 2698,2372 L 2693,2367 2793,2274 2798,2278 2698,2372 Z"/>
         <path fill="rgb(172,55,53)" stroke="none" d="M 2696,2370 L 2692,2365 2792,2272 2796,2276 2696,2370 Z"/>
         <path fill="rgb(173,56,54)" stroke="none" d="M 2694,2368 L 2690,2363 2790,2270 2794,2275 2694,2368 Z"/>
         <path fill="rgb(174,56,54)" stroke="none" d="M 2692,2366 L 2688,2361 2788,2268 2792,2273 2692,2366 Z"/>
         <path fill="rgb(175,57,55)" stroke="none" d="M 2690,2364 L 2686,2359 2786,2266 2790,2271 2690,2364 Z"/>
         <path fill="rgb(176,58,56)" stroke="none" d="M 2689,2362 L 2684,2357 2784,2264 2789,2269 2689,2362 Z"/>
         <path fill="rgb(177,58,56)" stroke="none" d="M 2687,2360 L 2682,2356 2782,2262 2787,2267 2687,2360 Z"/>
         <path fill="rgb(178,59,57)" stroke="none" d="M 2685,2358 L 2681,2354 2781,2260 2785,2265 2685,2358 Z"/>
         <path fill="rgb(180,59,57)" stroke="none" d="M 2683,2356 L 2679,2352 2779,2258 2783,2263 2683,2356 Z"/>
         <path fill="rgb(181,60,58)" stroke="none" d="M 2681,2354 L 2677,2350 2777,2256 2781,2261 2681,2354 Z"/>
         <path fill="rgb(182,61,59)" stroke="none" d="M 2679,2352 L 2675,2348 2775,2254 2779,2259 2679,2352 Z"/>
         <path fill="rgb(183,61,59)" stroke="none" d="M 2678,2350 L 2673,2346 2773,2252 2778,2257 2678,2350 Z"/>
         <path fill="rgb(184,62,60)" stroke="none" d="M 2676,2348 L 2672,2344 2772,2250 2776,2255 2676,2348 Z"/>
         <path fill="rgb(185,62,61)" stroke="none" d="M 2674,2346 L 2670,2342 2770,2249 2774,2253 2674,2346 Z"/>
         <path fill="rgb(186,63,61)" stroke="none" d="M 2672,2344 L 2668,2340 2768,2247 2772,2251 2672,2344 Z"/>
         <path fill="rgb(187,64,62)" stroke="none" d="M 2670,2343 L 2666,2338 2766,2245 2770,2249 2670,2343 Z"/>
         <path fill="rgb(188,64,63)" stroke="none" d="M 2669,2341 L 2664,2336 2764,2243 2769,2247 2669,2341 Z"/>
         <path fill="rgb(189,65,63)" stroke="none" d="M 2667,2339 L 2662,2334 2762,2241 2767,2245 2667,2339 Z"/>
         <path fill="rgb(190,65,64)" stroke="none" d="M 2665,2337 L 2661,2332 2761,2239 2765,2243 2665,2337 Z"/>
         <path fill="rgb(191,66,65)" stroke="none" d="M 2663,2335 L 2659,2330 2759,2237 2763,2241 2663,2335 Z"/>
         <path fill="rgb(192,67,65)" stroke="none" d="M 2661,2333 L 2657,2328 2757,2235 2761,2239 2661,2333 Z"/>
         <path fill="rgb(193,67,66)" stroke="none" d="M 2659,2331 L 2655,2326 2755,2233 2759,2238 2659,2331 Z"/>
         <path fill="rgb(194,68,67)" stroke="none" d="M 2658,2329 L 2653,2324 2753,2231 2758,2236 2658,2329 Z"/>
         <path fill="rgb(195,68,67)" stroke="none" d="M 2656,2327 L 2652,2322 2752,2229 2756,2234 2656,2327 Z"/>
         <path fill="rgb(196,69,68)" stroke="none" d="M 2654,2325 L 2650,2320 2750,2227 2754,2232 2654,2325 Z"/>
         <path fill="rgb(197,70,69)" stroke="none" d="M 2652,2323 L 2648,2318 2748,2225 2752,2230 2652,2323 Z"/>
         <path fill="rgb(199,70,69)" stroke="none" d="M 2650,2321 L 2646,2317 2746,2223 2750,2228 2650,2321 Z"/>
         <path fill="rgb(200,71,70)" stroke="none" d="M 2649,2319 L 2644,2315 2744,2221 2749,2226 2649,2319 Z"/>
         <path fill="rgb(201,71,70)" stroke="none" d="M 2647,2317 L 2642,2313 2742,2219 2747,2224 2647,2317 Z"/>
         <path fill="rgb(202,72,71)" stroke="none" d="M 2645,2315 L 2641,2311 2741,2217 2745,2222 2645,2315 Z"/>
         <path fill="rgb(203,73,72)" stroke="none" d="M 2643,2313 L 2639,2309 2739,2215 2743,2220 2643,2313 Z"/>
         <path fill="rgb(204,73,72)" stroke="none" d="M 2641,2311 L 2637,2307 2737,2213 2741,2218 2641,2311 Z"/>
         <path fill="rgb(205,74,73)" stroke="none" d="M 2639,2309 L 2635,2305 2735,2212 2739,2216 2639,2309 Z"/>
         <path fill="rgb(206,74,74)" stroke="none" d="M 2638,2307 L 2633,2303 2733,2210 2738,2214 2638,2307 Z"/>
         <path fill="rgb(207,75,74)" stroke="none" d="M 2636,2306 L 2632,2301 2732,2208 2736,2212 2636,2306 Z"/>
         <path fill="rgb(208,76,75)" stroke="none" d="M 2634,2304 L 2630,2299 2730,2206 2734,2210 2634,2304 Z"/>
         <path fill="rgb(209,76,76)" stroke="none" d="M 2632,2302 L 2628,2297 2728,2204 2732,2208 2632,2302 Z"/>
         <path fill="rgb(210,77,76)" stroke="none" d="M 2630,2300 L 2626,2295 2726,2202 2730,2206 2630,2300 Z"/>
         <path fill="rgb(211,78,77)" stroke="none" d="M 2629,2298 L 2624,2293 2724,2200 2729,2204 2629,2298 Z"/>
         <path fill="rgb(212,78,78)" stroke="none" d="M 2627,2296 L 2622,2291 2722,2198 2727,2202 2627,2296 Z"/>
         <path fill="rgb(213,79,78)" stroke="none" d="M 2625,2294 L 2621,2289 2721,2196 2725,2201 2625,2294 Z"/>
         <path fill="rgb(214,79,79)" stroke="none" d="M 2623,2292 L 2619,2287 2719,2194 2723,2199 2623,2292 Z"/>
         <path fill="rgb(215,80,80)" stroke="none" d="M 2621,2290 L 2617,2285 2717,2192 2721,2197 2621,2290 Z"/>
         <path fill="rgb(216,81,80)" stroke="none" d="M 2619,2288 L 2615,2283 2715,2190 2719,2195 2619,2288 Z"/>
         <path fill="rgb(218,81,81)" stroke="none" d="M 2618,2286 L 2613,2281 2713,2188 2718,2193 2618,2286 Z"/>
         <path fill="rgb(219,82,81)" stroke="none" d="M 2616,2284 L 2612,2280 2712,2186 2716,2191 2616,2284 Z"/>
         <path fill="rgb(220,82,82)" stroke="none" d="M 2614,2282 L 2610,2278 2710,2184 2714,2189 2614,2282 Z"/>
         <path fill="rgb(221,83,83)" stroke="none" d="M 2612,2280 L 2608,2276 2708,2182 2712,2187 2612,2280 Z"/>
         <path fill="rgb(222,84,83)" stroke="none" d="M 2610,2278 L 2606,2274 2706,2180 2710,2185 2610,2278 Z"/>
         <path fill="rgb(223,84,84)" stroke="none" d="M 2609,2276 L 2604,2272 2704,2178 2709,2183 2609,2276 Z"/>
         <path fill="rgb(224,85,85)" stroke="none" d="M 2607,2274 L 2602,2270 2702,2176 2707,2181 2607,2274 Z"/>
         <path fill="rgb(225,85,85)" stroke="none" d="M 2605,2272 L 2601,2268 2701,2175 2705,2179 2605,2272 Z"/>
         <path fill="rgb(226,86,86)" stroke="none" d="M 2603,2270 L 2566,2231 2666,2138 2703,2177 2603,2270 Z"/>
        </g>
        <defs>
         <clipPath id="clip_path_3" clipPathUnits="userSpaceOnUse">
          <path d="M 2843,2850 L 2341,2850 2432,2761 2843,2761 2843,2850 Z"/>
         </clipPath>
        </defs>
        <g clip-path="url(#clip_path_3)">
         <path fill="rgb(163,123,22)" stroke="none" d="M 2315,2761 L 2370,2761 2370,2850 2315,2850 2315,2761 Z"/>
         <path fill="rgb(163,123,22)" stroke="none" d="M 2317,2761 L 2409,2761 2409,2850 2317,2850 2317,2761 Z"/>
         <path fill="rgb(157,118,22)" stroke="none" d="M 2356,2761 L 2447,2761 2447,2850 2356,2850 2356,2761 Z"/>
         <path fill="rgb(152,113,23)" stroke="none" d="M 2394,2761 L 2485,2761 2485,2850 2394,2850 2394,2761 Z"/>
         <path fill="rgb(146,109,23)" stroke="none" d="M 2433,2761 L 2524,2761 2524,2850 2433,2850 2433,2761 Z"/>
         <path fill="rgb(141,104,24)" stroke="none" d="M 2471,2761 L 2562,2761 2562,2850 2471,2850 2471,2761 Z"/>
         <path fill="rgb(135,99,24)" stroke="none" d="M 2509,2761 L 2601,2761 2601,2850 2509,2850 2509,2761 Z"/>
         <path fill="rgb(129,94,25)" stroke="none" d="M 2548,2761 L 2639,2761 2639,2850 2548,2850 2548,2761 Z"/>
         <path fill="rgb(124,90,25)" stroke="none" d="M 2586,2761 L 2677,2761 2677,2850 2586,2850 2586,2761 Z"/>
         <path fill="rgb(118,85,26)" stroke="none" d="M 2625,2761 L 2716,2761 2716,2850 2625,2850 2625,2761 Z"/>
         <path fill="rgb(112,80,26)" stroke="none" d="M 2663,2761 L 2754,2761 2754,2850 2663,2850 2663,2761 Z"/>
         <path fill="rgb(107,75,27)" stroke="none" d="M 2701,2761 L 2793,2761 2793,2850 2701,2850 2701,2761 Z"/>
         <path fill="rgb(101,71,27)" stroke="none" d="M 2740,2761 L 2831,2761 2831,2850 2740,2850 2740,2761 Z"/>
         <path fill="rgb(96,66,28)" stroke="none" d="M 2778,2761 L 2869,2761 2869,2850 2778,2850 2778,2761 Z"/>
         <path fill="rgb(90,61,28)" stroke="none" d="M 2816,2761 L 2869,2761 2869,2850 2816,2850 2816,2761 Z"/>
        </g>
       </g>
      </g>
     </g>
    </g>
   </g>
  </g>
 </g>
</svg>