<?xml version="1.0" encoding="UTF-8"?>
<!DOCTYPE svg PUBLIC "-//W3C//DTD SVG 1.1//EN" "http://www.w3.org/Graphics/SVG/1.1/DTD/svg11.dtd">
<svg version="1.2" width="10mm" height="10mm" viewBox="4000 2000 1000 1000" preserveAspectRatio="xMidYMid" fill-rule="evenodd" stroke-width="28.222" stroke-linejoin="round" xmlns="http://www.w3.org/2000/svg" xmlns:ooo="http://xml.openoffice.org/svg/export" xmlns:xlink="http://www.w3.org/1999/xlink" xmlns:presentation="http://sun.com/xmlns/staroffice/presentation" xmlns:smil="http://www.w3.org/2001/SMIL20/" xmlns:anim="urn:oasis:names:tc:opendocument:xmlns:animation:1.0" xml:space="preserve">
 <defs class="ClipPathGroup">
  <clipPath id="presentation_clip_path" clipPathUnits="userSpaceOnUse">
   <rect x="4000" y="2000" width="1000" height="1000"/>
  </clipPath>
  <clipPath id="presentation_clip_path_shrink" clipPathUnits="userSpaceOnUse">
   <rect x="4001" y="2001" width="998" height="998"/>
  </clipPath>
 </defs>
 <defs class="TextShapeIndex">
  <g ooo:slide="id1" ooo:id-list="id3"/>
 </defs>
 <defs class="EmbeddedBulletChars">
  <g id="bullet-char-template-57356" transform="scale(0.00048828125,-0.00048828125)">
   <path d="M 580,1141 L 1163,571 580,0 -4,571 580,1141 Z"/>
  </g>
  <g id="bullet-char-template-57354" transform="scale(0.00048828125,-0.00048828125)">
   <path d="M 8,1128 L 1137,1128 1137,0 8,0 8,1128 Z"/>
  </g>
  <g id="bullet-char-template-10146" transform="scale(0.00048828125,-0.00048828125)">
   <path d="M 174,0 L 602,739 174,1481 1456,739 174,0 Z M 1358,739 L 309,1346 659,739 1358,739 Z"/>
  </g>
  <g id="bullet-char-template-10132" transform="scale(0.00048828125,-0.00048828125)">
   <path d="M 2015,739 L 1276,0 717,0 1260,543 174,543 174,936 1260,936 717,1481 1274,1481 2015,739 Z"/>
  </g>
  <g id="bullet-char-template-10007" transform="scale(0.00048828125,-0.00048828125)">
   <path d="M 0,-2 C -7,14 -16,27 -25,37 L 356,567 C 262,823 215,952 215,954 215,979 228,992 255,992 264,992 276,990 289,987 310,991 331,999 354,1012 L 381,999 492,748 772,1049 836,1024 860,1049 C 881,1039 901,1025 922,1006 886,937 835,863 770,784 769,783 710,716 594,584 L 774,223 C 774,196 753,168 711,139 L 727,119 C 717,90 699,76 672,76 641,76 570,178 457,381 L 164,-76 C 142,-110 111,-127 72,-127 30,-127 9,-110 8,-76 1,-67 -2,-52 -2,-32 -2,-23 -1,-13 0,-2 Z"/>
  </g>
  <g id="bullet-char-template-10004" transform="scale(0.00048828125,-0.00048828125)">
   <path d="M 285,-33 C 182,-33 111,30 74,156 52,228 41,333 41,471 41,549 55,616 82,672 116,743 169,778 240,778 293,778 328,747 346,684 L 369,508 C 377,444 397,411 428,410 L 1163,1116 C 1174,1127 1196,1133 1229,1133 1271,1133 1292,1118 1292,1087 L 1292,965 C 1292,929 1282,901 1262,881 L 442,47 C 390,-6 338,-33 285,-33 Z"/>
  </g>
  <g id="bullet-char-template-9679" transform="scale(0.00048828125,-0.00048828125)">
   <path d="M 813,0 C 632,0 489,54 383,161 276,268 223,411 223,592 223,773 276,916 383,1023 489,1130 632,1184 813,1184 992,1184 1136,1130 1245,1023 1353,916 1407,772 1407,592 1407,412 1353,268 1245,161 1136,54 992,0 813,0 Z"/>
  </g>
  <g id="bullet-char-template-8226" transform="scale(0.00048828125,-0.00048828125)">
   <path d="M 346,457 C 273,457 209,483 155,535 101,586 74,649 74,723 74,796 101,859 155,911 209,963 273,989 346,989 419,989 480,963 531,910 582,859 608,796 608,723 608,648 583,586 532,535 482,483 420,457 346,457 Z"/>
  </g>
  <g id="bullet-char-template-8211" transform="scale(0.00048828125,-0.00048828125)">
   <path d="M -4,459 L 1135,459 1135,606 -4,606 -4,459 Z"/>
  </g>
  <g id="bullet-char-template-61548" transform="scale(0.00048828125,-0.00048828125)">
   <path d="M 173,740 C 173,903 231,1043 346,1159 462,1274 601,1332 765,1332 928,1332 1067,1274 1183,1159 1299,1043 1357,903 1357,740 1357,577 1299,437 1183,322 1067,206 928,148 765,148 601,148 462,206 346,322 231,437 173,577 173,740 Z"/>
  </g>
 </defs>
 <defs class="TextEmbeddedBitmaps"/>
 <g class="SlideGroup">
  <g>
   <g id="container-id1">
    <g id="id1" class="Slide" clip-path="url(#presentation_clip_path)">
     <g class="Page">
      <g class="Graphic">
       <g id="id3">
        <rect class="BoundingBox" stroke="none" fill="none" x="4000" y="2000" width="1001" height="1001"/>
        <defs>
         <clipPath id="clip_path_1" clipPathUnits="userSpaceOnUse">
          <path d="M 4439,2137 C 4439,2137 4428,2220 4426,2234 4405,2240 4385,2248 4366,2258 4355,2250 4288,2200 4288,2200 4283,2196 4275,2196 4270,2201 L 4200,2271 C 4198,2274 4196,2277 4196,2281 4196,2284 4197,2287 4199,2289 4199,2289 4249,2356 4258,2367 4247,2386 4239,2406 4233,2426 4219,2429 4136,2440 4136,2440 4129,2441 4124,2447 4124,2454 L 4124,2553 C 4124,2559 4129,2565 4136,2566 4136,2566 4219,2578 4233,2580 4239,2601 4247,2621 4258,2640 4249,2651 4199,2718 4199,2718 4197,2720 4196,2723 4196,2726 4196,2729 4198,2733 4200,2736 L 4270,2805 C 4275,2810 4283,2811 4288,2807 4288,2807 4355,2757 4366,2748 4385,2759 4405,2767 4426,2773 4428,2787 4439,2869 4439,2869 4440,2876 4446,2881 4453,2881 L 4552,2881 C 4559,2881 4564,2876 4565,2869 4565,2869 4577,2787 4579,2773 4600,2767 4620,2759 4639,2748 4650,2757 4717,2807 4717,2807 4722,2811 4730,2810 4735,2805 L 4805,2736 C 4807,2733 4809,2729 4809,2726 4809,2723 4808,2720 4806,2718 4806,2718 4756,2651 4747,2640 4758,2621 4766,2601 4772,2580 4786,2578 4868,2566 4868,2566 4875,2565 4880,2559 4880,2553 L 4880,2454 C 4880,2447 4875,2441 4868,2440 4868,2440 4786,2429 4772,2427 4766,2406 4758,2386 4747,2367 4756,2356 4806,2289 4806,2289 4808,2287 4809,2284 4809,2281 4809,2277 4807,2274 4805,2271 L 4735,2201 C 4730,2196 4722,2196 4717,2200 4717,2200 4650,2250 4639,2258 4620,2248 4600,2240 4579,2234 4577,2220 4565,2137 4565,2137 4564,2130 4559,2125 4552,2125 L 4453,2125 C 4446,2125 4440,2130 4439,2137 Z M 4401,2503 C 4401,2447 4447,2402 4502,2402 4558,2402 4604,2447 4604,2503 4604,2559 4558,2605 4502,2605 4447,2605 4401,2559 4401,2503 Z"/>
         </clipPath>
        </defs>
        <g clip-path="url(#clip_path_1)">
         <path fill="rgb(39,68,125)" stroke="none" d="M 4098,2125 L 4151,2125 4151,2881 4098,2881 4098,2125 Z"/>
         <path fill="rgb(39,68,125)" stroke="none" d="M 4098,2125 L 4191,2125 4191,2881 4098,2881 4098,2125 Z"/>
         <path fill="rgb(38,67,123)" stroke="none" d="M 4138,2125 L 4230,2125 4230,2881 4138,2881 4138,2125 Z"/>
         <path fill="rgb(38,65,121)" stroke="none" d="M 4177,2125 L 4270,2125 4270,2881 4177,2881 4177,2125 Z"/>
         <path fill="rgb(37,64,119)" stroke="none" d="M 4217,2125 L 4310,2125 4310,2881 4217,2881 4217,2125 Z"/>
         <path fill="rgb(37,62,117)" stroke="none" d="M 4257,2125 L 4350,2125 4350,2881 4257,2881 4257,2125 Z"/>
         <path fill="rgb(36,61,115)" stroke="none" d="M 4297,2125 L 4390,2125 4390,2881 4297,2881 4297,2125 Z"/>
         <path fill="rgb(36,59,113)" stroke="none" d="M 4337,2125 L 4429,2125 4429,2881 4337,2881 4337,2125 Z"/>
         <path fill="rgb(35,58,111)" stroke="none" d="M 4376,2125 L 4469,2125 4469,2881 4376,2881 4376,2125 Z"/>
         <path fill="rgb(34,57,109)" stroke="none" d="M 4416,2125 L 4509,2125 4509,2881 4416,2881 4416,2125 Z"/>
         <path fill="rgb(34,55,107)" stroke="none" d="M 4456,2125 L 4549,2125 4549,2881 4456,2881 4456,2125 Z"/>
         <path fill="rgb(33,54,106)" stroke="none" d="M 4496,2125 L 4589,2125 4589,2881 4496,2881 4496,2125 Z"/>
         <path fill="rgb(33,52,104)" stroke="none" d="M 4536,2125 L 4628,2125 4628,2881 4536,2881 4536,2125 Z"/>
         <path fill="rgb(32,51,102)" stroke="none" d="M 4575,2125 L 4668,2125 4668,2881 4575,2881 4575,2125 Z"/>
         <path fill="rgb(31,50,100)" stroke="none" d="M 4615,2125 L 4708,2125 4708,2881 4615,2881 4615,2125 Z"/>
         <path fill="rgb(31,48,98)" stroke="none" d="M 4655,2125 L 4748,2125 4748,2881 4655,2881 4655,2125 Z"/>
         <path fill="rgb(30,47,96)" stroke="none" d="M 4695,2125 L 4787,2125 4787,2881 4695,2881 4695,2125 Z"/>
         <path fill="rgb(30,45,94)" stroke="none" d="M 4735,2125 L 4827,2125 4827,2881 4735,2881 4735,2125 Z"/>
         <path fill="rgb(29,44,92)" stroke="none" d="M 4774,2125 L 4867,2125 4867,2881 4774,2881 4774,2125 Z"/>
         <path fill="rgb(29,42,90)" stroke="none" d="M 4814,2125 L 4907,2125 4907,2881 4814,2881 4814,2125 Z"/>
         <path fill="rgb(28,41,88)" stroke="none" d="M 4854,2125 L 4907,2125 4907,2881 4854,2881 4854,2125 Z"/>
        </g>
        <path fill="rgb(61,98,149)" stroke="none" d="M 4552,2111 L 4453,2111 C 4439,2111 4428,2122 4426,2135 L 4413,2223 C 4397,2228 4382,2234 4367,2242 L 4296,2189 C 4291,2185 4286,2183 4280,2183 4273,2183 4266,2186 4260,2191 L 4190,2261 C 4181,2271 4180,2286 4188,2297 L 4241,2368 C 4233,2383 4227,2398 4222,2414 L 4134,2427 C 4121,2429 4111,2440 4111,2454 L 4111,2553 C 4111,2566 4121,2578 4134,2580 L 4222,2592 C 4227,2608 4233,2624 4241,2639 L 4188,2709 C 4180,2720 4181,2736 4190,2745 L 4260,2815 C 4266,2821 4273,2823 4280,2823 4286,2823 4291,2822 4296,2818 L 4367,2765 C 4382,2773 4397,2779 4413,2784 L 4426,2871 C 4428,2885 4439,2895 4453,2895 L 4552,2895 C 4565,2895 4577,2885 4579,2871 L 4592,2784 C 4607,2779 4623,2773 4638,2765 L 4708,2818 C 4713,2822 4719,2823 4725,2823 4732,2823 4739,2821 4745,2815 L 4814,2745 C 4824,2736 4825,2720 4817,2709 L 4764,2639 C 4772,2624 4778,2608 4783,2592 L 4870,2580 C 4884,2578 4894,2566 4894,2553 L 4894,2454 C 4894,2440 4884,2429 4870,2427 L 4783,2414 C 4778,2398 4772,2383 4764,2368 L 4817,2297 C 4825,2286 4824,2271 4814,2261 L 4745,2191 C 4739,2186 4732,2183 4725,2183 4719,2183 4713,2185 4708,2189 L 4638,2242 C 4623,2234 4607,2228 4592,2223 L 4579,2135 C 4577,2122 4565,2111 4552,2111 L 4552,2111 4552,2111 Z M 4365,2275 C 4387,2261 4412,2251 4438,2244 L 4453,2139 4552,2139 4567,2244 C 4593,2251 4618,2261 4640,2275 L 4725,2211 4795,2281 4795,2281 4795,2281 4731,2366 C 4745,2388 4755,2413 4761,2439 L 4867,2454 4867,2553 4867,2553 4867,2553 4761,2568 C 4755,2594 4745,2618 4731,2641 L 4795,2726 4795,2726 4795,2726 4725,2796 4640,2732 C 4618,2746 4593,2756 4567,2762 L 4552,2867 4453,2867 4438,2762 C 4412,2756 4387,2746 4365,2732 L 4280,2796 4210,2726 4210,2726 4210,2726 4274,2641 C 4260,2618 4250,2594 4243,2568 L 4138,2553 4138,2454 4138,2454 4138,2454 4243,2439 C 4250,2413 4260,2388 4274,2366 L 4210,2281 4210,2281 4210,2281 4280,2211 4365,2275 4365,2275 4365,2275 Z M 4502,2388 C 4439,2388 4387,2440 4387,2503 4387,2567 4439,2618 4502,2618 4566,2618 4617,2567 4617,2503 4617,2440 4566,2388 4502,2388 L 4502,2388 4502,2388 Z M 4502,2591 C 4454,2591 4415,2552 4415,2503 4415,2455 4454,2416 4502,2416 4551,2416 4590,2455 4590,2503 4590,2552 4551,2591 4502,2591 L 4502,2591 4502,2591 Z"/>
        <defs>
         <clipPath id="clip_path_2" clipPathUnits="userSpaceOnUse">
          <path d="M 4463,2150 C 4460,2166 4448,2253 4448,2253 L 4441,2255 C 4416,2261 4392,2271 4370,2284 L 4364,2288 C 4364,2288 4293,2235 4281,2225 4271,2235 4234,2272 4224,2282 4234,2294 4287,2365 4287,2365 L 4283,2371 C 4270,2393 4260,2417 4254,2442 L 4252,2449 C 4252,2449 4165,2461 4149,2463 4149,2477 4149,2529 4149,2543 4165,2545 4252,2558 4252,2558 L 4254,2565 C 4260,2590 4270,2613 4283,2635 L 4287,2642 C 4287,2642 4234,2712 4224,2725 4234,2735 4271,2771 4281,2781 4293,2772 4364,2719 4364,2719 L 4370,2723 C 4392,2736 4416,2746 4441,2752 L 4448,2753 C 4448,2753 4460,2841 4463,2856 4476,2856 4528,2856 4542,2856 4544,2841 4557,2753 4557,2753 L 4564,2752 C 4589,2746 4613,2736 4634,2723 L 4641,2719 C 4641,2719 4711,2772 4724,2781 4734,2771 4770,2735 4780,2725 4771,2712 4718,2642 4718,2642 L 4722,2635 C 4735,2613 4745,2590 4751,2565 L 4753,2558 C 4753,2558 4840,2545 4856,2543 4856,2529 4856,2477 4856,2463 4840,2461 4753,2449 4753,2449 L 4751,2442 C 4745,2417 4735,2393 4722,2371 L 4718,2365 C 4718,2365 4771,2294 4780,2282 4770,2272 4734,2235 4724,2225 4711,2235 4641,2288 4641,2288 L 4634,2284 C 4613,2271 4589,2261 4564,2255 L 4557,2253 C 4557,2253 4544,2166 4542,2150 4528,2150 4476,2150 4463,2150 L 4463,2150 Z M 4376,2503 C 4376,2434 4433,2377 4502,2377 4572,2377 4628,2434 4628,2503 4628,2573 4572,2629 4502,2629 4433,2629 4376,2573 4376,2503 L 4376,2503 Z"/>
         </clipPath>
        </defs>
        <g clip-path="url(#clip_path_2)">
         <path fill="rgb(255,255,255)" stroke="none" d="M 4529,1968 L 4539,1981 3985,2426 3975,2414 4529,1968 Z"/>
         <path fill="rgb(253,253,253)" stroke="none" d="M 4533,1974 L 4543,1987 3989,2432 3979,2419 4533,1974 Z"/>
         <path fill="rgb(251,251,251)" stroke="none" d="M 4538,1979 L 4548,1992 3993,2437 3983,2424 4538,1979 Z"/>
         <path fill="rgb(248,248,248)" stroke="none" d="M 4542,1985 L 4552,1998 3998,2443 3988,2430 4542,1985 Z"/>
         <path fill="rgb(246,246,246)" stroke="none" d="M 4546,1990 L 4557,2003 4002,2448 3992,2435 4546,1990 Z"/>
         <path fill="rgb(244,244,244)" stroke="none" d="M 4551,1996 L 4561,2009 4007,2454 3996,2441 4551,1996 Z"/>
         <path fill="rgb(242,242,242)" stroke="none" d="M 4555,2001 L 4565,2014 4011,2459 4001,2446 4555,2001 Z"/>
         <path fill="rgb(240,240,240)" stroke="none" d="M 4560,2007 L 4570,2019 4015,2464 4005,2452 4560,2007 Z"/>
         <path fill="rgb(237,237,237)" stroke="none" d="M 4564,2012 L 4574,2025 4020,2470 4010,2457 4564,2012 Z"/>
         <path fill="rgb(235,235,235)" stroke="none" d="M 4568,2018 L 4579,2030 4024,2475 4014,2463 4568,2018 Z"/>
         <path fill="rgb(233,233,233)" stroke="none" d="M 4573,2023 L 4583,2036 4029,2481 4018,2468 4573,2023 Z"/>
         <path fill="rgb(231,231,231)" stroke="none" d="M 4577,2029 L 4587,2041 4033,2486 4023,2474 4577,2029 Z"/>
         <path fill="rgb(229,229,229)" stroke="none" d="M 4581,2034 L 4592,2047 4037,2492 4027,2479 4581,2034 Z"/>
         <path fill="rgb(226,226,226)" stroke="none" d="M 4586,2039 L 4596,2052 4042,2497 4031,2485 4586,2039 Z"/>
         <path fill="rgb(224,224,224)" stroke="none" d="M 4590,2045 L 4600,2058 4046,2503 4036,2490 4590,2045 Z"/>
         <path fill="rgb(222,222,222)" stroke="none" d="M 4595,2050 L 4605,2063 4050,2508 4040,2495 4595,2050 Z"/>
         <path fill="rgb(220,220,220)" stroke="none" d="M 4599,2056 L 4609,2069 4055,2514 4045,2501 4599,2056 Z"/>
         <path fill="rgb(218,218,218)" stroke="none" d="M 4603,2061 L 4614,2074 4059,2519 4049,2506 4603,2061 Z"/>
         <path fill="rgb(215,215,215)" stroke="none" d="M 4608,2067 L 4618,2079 4064,2525 4053,2512 4608,2067 Z"/>
         <path fill="rgb(213,213,213)" stroke="none" d="M 4612,2072 L 4622,2085 4068,2530 4058,2517 4612,2072 Z"/>
         <path fill="rgb(211,211,211)" stroke="none" d="M 4617,2078 L 4627,2090 4072,2535 4062,2523 4617,2078 Z"/>
         <path fill="rgb(209,209,209)" stroke="none" d="M 4621,2083 L 4631,2096 4077,2541 4067,2528 4621,2083 Z"/>
         <path fill="rgb(207,207,207)" stroke="none" d="M 4625,2089 L 4635,2101 4081,2546 4071,2534 4625,2089 Z"/>
         <path fill="rgb(204,204,204)" stroke="none" d="M 4630,2094 L 4640,2107 4086,2552 4075,2539 4630,2094 Z"/>
         <path fill="rgb(202,202,202)" stroke="none" d="M 4634,2100 L 4644,2112 4090,2557 4080,2545 4634,2100 Z"/>
         <path fill="rgb(200,200,200)" stroke="none" d="M 4638,2105 L 4649,2118 4094,2563 4084,2550 4638,2105 Z"/>
         <path fill="rgb(198,198,198)" stroke="none" d="M 4643,2110 L 4653,2123 4099,2568 4088,2555 4643,2110 Z"/>
         <path fill="rgb(196,196,196)" stroke="none" d="M 4647,2116 L 4657,2129 4103,2574 4093,2561 4647,2116 Z"/>
         <path fill="rgb(193,193,193)" stroke="none" d="M 4652,2121 L 4662,2134 4107,2579 4097,2566 4652,2121 Z"/>
         <path fill="rgb(191,191,191)" stroke="none" d="M 4656,2127 L 4666,2140 4112,2585 4102,2572 4656,2127 Z"/>
         <path fill="rgb(189,189,189)" stroke="none" d="M 4660,2132 L 4671,2145 4116,2590 4106,2577 4660,2132 Z"/>
         <path fill="rgb(187,187,187)" stroke="none" d="M 4665,2138 L 4675,2150 4121,2596 4110,2583 4665,2138 Z"/>
         <path fill="rgb(185,185,185)" stroke="none" d="M 4669,2143 L 4679,2156 4125,2601 4115,2588 4669,2143 Z"/>
         <path fill="rgb(182,182,182)" stroke="none" d="M 4674,2149 L 4684,2161 4129,2606 4119,2594 4674,2149 Z"/>
         <path fill="rgb(180,180,180)" stroke="none" d="M 4678,2154 L 4688,2167 4134,2612 4124,2599 4678,2154 Z"/>
         <path fill="rgb(178,178,178)" stroke="none" d="M 4682,2160 L 4692,2172 4138,2617 4128,2605 4682,2160 Z"/>
         <path fill="rgb(176,176,176)" stroke="none" d="M 4687,2165 L 4697,2178 4143,2623 4132,2610 4687,2165 Z"/>
         <path fill="rgb(174,174,174)" stroke="none" d="M 4691,2171 L 4701,2183 4147,2628 4137,2616 4691,2171 Z"/>
         <path fill="rgb(171,171,171)" stroke="none" d="M 4695,2176 L 4706,2189 4151,2634 4141,2621 4695,2176 Z"/>
         <path fill="rgb(169,169,169)" stroke="none" d="M 4700,2181 L 4710,2194 4156,2639 4145,2626 4700,2181 Z"/>
         <path fill="rgb(167,167,167)" stroke="none" d="M 4704,2187 L 4714,2200 4160,2645 4150,2632 4704,2187 Z"/>
         <path fill="rgb(165,165,165)" stroke="none" d="M 4709,2192 L 4719,2205 4164,2650 4154,2637 4709,2192 Z"/>
         <path fill="rgb(163,163,163)" stroke="none" d="M 4713,2198 L 4723,2211 4169,2656 4159,2643 4713,2198 Z"/>
         <path fill="rgb(160,160,160)" stroke="none" d="M 4717,2203 L 4728,2216 4173,2661 4163,2648 4717,2203 Z"/>
         <path fill="rgb(158,158,158)" stroke="none" d="M 4722,2209 L 4732,2221 4178,2666 4167,2654 4722,2209 Z"/>
         <path fill="rgb(156,156,156)" stroke="none" d="M 4726,2214 L 4736,2227 4182,2672 4172,2659 4726,2214 Z"/>
         <path fill="rgb(154,154,154)" stroke="none" d="M 4730,2220 L 4741,2232 4186,2677 4176,2665 4730,2220 Z"/>
         <path fill="rgb(152,152,152)" stroke="none" d="M 4735,2225 L 4745,2238 4191,2683 4181,2670 4735,2225 Z"/>
         <path fill="rgb(149,149,149)" stroke="none" d="M 4739,2231 L 4749,2243 4195,2688 4185,2676 4739,2231 Z"/>
         <path fill="rgb(147,147,147)" stroke="none" d="M 4744,2236 L 4754,2249 4199,2694 4189,2681 4744,2236 Z"/>
         <path fill="rgb(145,145,145)" stroke="none" d="M 4748,2241 L 4758,2254 4204,2699 4194,2687 4748,2241 Z"/>
         <path fill="rgb(143,143,143)" stroke="none" d="M 4752,2247 L 4763,2260 4208,2705 4198,2692 4752,2247 Z"/>
         <path fill="rgb(141,141,141)" stroke="none" d="M 4757,2252 L 4767,2265 4213,2710 4202,2697 4757,2252 Z"/>
         <path fill="rgb(138,138,138)" stroke="none" d="M 4761,2258 L 4771,2271 4217,2716 4207,2703 4761,2258 Z"/>
         <path fill="rgb(136,136,136)" stroke="none" d="M 4766,2263 L 4776,2276 4221,2721 4211,2708 4766,2263 Z"/>
         <path fill="rgb(134,134,134)" stroke="none" d="M 4770,2269 L 4780,2282 4226,2727 4216,2714 4770,2269 Z"/>
         <path fill="rgb(132,132,132)" stroke="none" d="M 4774,2274 L 4785,2287 4230,2732 4220,2719 4774,2274 Z"/>
         <path fill="rgb(130,130,130)" stroke="none" d="M 4779,2280 L 4789,2292 4235,2737 4224,2725 4779,2280 Z"/>
         <path fill="rgb(127,127,127)" stroke="none" d="M 4783,2285 L 4793,2298 4239,2743 4229,2730 4783,2285 Z"/>
         <path fill="rgb(125,125,125)" stroke="none" d="M 4787,2291 L 4798,2303 4243,2748 4233,2736 4787,2291 Z"/>
         <path fill="rgb(123,123,123)" stroke="none" d="M 4792,2296 L 4802,2309 4248,2754 4237,2741 4792,2296 Z"/>
         <path fill="rgb(121,121,121)" stroke="none" d="M 4796,2302 L 4806,2314 4252,2759 4242,2747 4796,2302 Z"/>
         <path fill="rgb(119,119,119)" stroke="none" d="M 4801,2307 L 4811,2320 4256,2765 4246,2752 4801,2307 Z"/>
         <path fill="rgb(117,117,117)" stroke="none" d="M 4805,2312 L 4815,2325 4261,2770 4251,2758 4805,2312 Z"/>
         <path fill="rgb(114,114,114)" stroke="none" d="M 4809,2318 L 4820,2331 4265,2776 4255,2763 4809,2318 Z"/>
         <path fill="rgb(112,112,112)" stroke="none" d="M 4814,2323 L 4824,2336 4270,2781 4259,2768 4814,2323 Z"/>
         <path fill="rgb(110,110,110)" stroke="none" d="M 4818,2329 L 4828,2342 4274,2787 4264,2774 4818,2329 Z"/>
         <path fill="rgb(108,108,108)" stroke="none" d="M 4823,2334 L 4833,2347 4278,2792 4268,2779 4823,2334 Z"/>
         <path fill="rgb(106,106,106)" stroke="none" d="M 4827,2340 L 4837,2352 4283,2798 4273,2785 4827,2340 Z"/>
         <path fill="rgb(103,103,103)" stroke="none" d="M 4831,2345 L 4842,2358 4287,2803 4277,2790 4831,2345 Z"/>
         <path fill="rgb(101,101,101)" stroke="none" d="M 4836,2351 L 4846,2363 4292,2808 4281,2796 4836,2351 Z"/>
         <path fill="rgb(99,99,99)" stroke="none" d="M 4840,2356 L 4850,2369 4296,2814 4286,2801 4840,2356 Z"/>
         <path fill="rgb(97,97,97)" stroke="none" d="M 4844,2362 L 4855,2374 4300,2819 4290,2807 4844,2362 Z"/>
         <path fill="rgb(95,95,95)" stroke="none" d="M 4849,2367 L 4859,2380 4305,2825 4294,2812 4849,2367 Z"/>
         <path fill="rgb(92,92,92)" stroke="none" d="M 4853,2373 L 4863,2385 4309,2830 4299,2818 4853,2373 Z"/>
         <path fill="rgb(90,90,90)" stroke="none" d="M 4858,2378 L 4868,2391 4313,2836 4303,2823 4858,2378 Z"/>
         <path fill="rgb(88,88,88)" stroke="none" d="M 4862,2383 L 4872,2396 4318,2841 4308,2828 4862,2383 Z"/>
         <path fill="rgb(86,86,86)" stroke="none" d="M 4866,2389 L 4877,2402 4322,2847 4312,2834 4866,2389 Z"/>
         <path fill="rgb(84,84,84)" stroke="none" d="M 4871,2394 L 4881,2407 4327,2852 4316,2839 4871,2394 Z"/>
         <path fill="rgb(81,81,81)" stroke="none" d="M 4875,2400 L 4885,2413 4331,2858 4321,2845 4875,2400 Z"/>
         <path fill="rgb(79,79,79)" stroke="none" d="M 4880,2405 L 4890,2418 4335,2863 4325,2850 4880,2405 Z"/>
         <path fill="rgb(77,77,77)" stroke="none" d="M 4884,2411 L 4894,2423 4340,2869 4330,2856 4884,2411 Z"/>
         <path fill="rgb(75,75,75)" stroke="none" d="M 4888,2416 L 4898,2429 4344,2874 4334,2861 4888,2416 Z"/>
         <path fill="rgb(73,73,73)" stroke="none" d="M 4893,2422 L 4903,2434 4349,2879 4338,2867 4893,2422 Z"/>
         <path fill="rgb(70,70,70)" stroke="none" d="M 4897,2427 L 4907,2440 4353,2885 4343,2872 4897,2427 Z"/>
         <path fill="rgb(68,68,68)" stroke="none" d="M 4901,2433 L 4912,2445 4357,2890 4347,2878 4901,2433 Z"/>
         <path fill="rgb(66,66,66)" stroke="none" d="M 4906,2438 L 4916,2451 4362,2896 4351,2883 4906,2438 Z"/>
         <path fill="rgb(64,64,64)" stroke="none" d="M 4910,2444 L 4920,2456 4366,2901 4356,2889 4910,2444 Z"/>
         <path fill="rgb(62,62,62)" stroke="none" d="M 4915,2449 L 4925,2462 4370,2907 4360,2894 4915,2449 Z"/>
         <path fill="rgb(59,59,59)" stroke="none" d="M 4919,2454 L 4929,2467 4375,2912 4365,2899 4919,2454 Z"/>
         <path fill="rgb(57,57,57)" stroke="none" d="M 4923,2460 L 4934,2473 4379,2918 4369,2905 4923,2460 Z"/>
         <path fill="rgb(55,55,55)" stroke="none" d="M 4928,2465 L 4938,2478 4384,2923 4373,2910 4928,2465 Z"/>
         <path fill="rgb(53,53,53)" stroke="none" d="M 4932,2471 L 4942,2484 4388,2929 4378,2916 4932,2471 Z"/>
         <path fill="rgb(51,51,51)" stroke="none" d="M 4936,2476 L 4947,2489 4392,2934 4382,2921 4936,2476 Z"/>
         <path fill="rgb(48,48,48)" stroke="none" d="M 4941,2482 L 4951,2494 4397,2939 4387,2927 4941,2482 Z"/>
         <path fill="rgb(46,46,46)" stroke="none" d="M 4945,2487 L 4955,2500 4401,2945 4391,2932 4945,2487 Z"/>
         <path fill="rgb(44,44,44)" stroke="none" d="M 4950,2493 L 4960,2505 4405,2950 4395,2938 4950,2493 Z"/>
         <path fill="rgb(42,42,42)" stroke="none" d="M 4954,2498 L 4964,2511 4410,2956 4400,2943 4954,2498 Z"/>
         <path fill="rgb(40,40,40)" stroke="none" d="M 4958,2504 L 4969,2516 4414,2961 4404,2949 4958,2504 Z"/>
         <path fill="rgb(37,37,37)" stroke="none" d="M 4963,2509 L 4973,2522 4419,2967 4408,2954 4963,2509 Z"/>
         <path fill="rgb(35,35,35)" stroke="none" d="M 4967,2514 L 4977,2527 4423,2972 4413,2960 4967,2514 Z"/>
         <path fill="rgb(33,33,33)" stroke="none" d="M 4972,2520 L 4982,2533 4427,2978 4417,2965 4972,2520 Z"/>
         <path fill="rgb(31,31,31)" stroke="none" d="M 4976,2525 L 4986,2538 4432,2983 4422,2970 4976,2525 Z"/>
         <path fill="rgb(29,29,29)" stroke="none" d="M 4980,2531 L 4991,2544 4436,2989 4426,2976 4980,2531 Z"/>
         <path fill="rgb(26,26,26)" stroke="none" d="M 4985,2536 L 4995,2549 4441,2994 4430,2981 4985,2536 Z"/>
         <path fill="rgb(24,24,24)" stroke="none" d="M 4989,2542 L 4999,2554 4445,3000 4435,2987 4989,2542 Z"/>
         <path fill="rgb(22,22,22)" stroke="none" d="M 4993,2547 L 5004,2560 4449,3005 4439,2992 4993,2547 Z"/>
         <path fill="rgb(20,20,20)" stroke="none" d="M 4998,2553 L 5008,2565 4454,3010 4444,2998 4998,2553 Z"/>
         <path fill="rgb(18,18,18)" stroke="none" d="M 5002,2558 L 5012,2571 4458,3016 4448,3003 5002,2558 Z"/>
         <path fill="rgb(15,15,15)" stroke="none" d="M 5007,2564 L 5017,2576 4462,3021 4452,3009 5007,2564 Z"/>
         <path fill="rgb(13,13,13)" stroke="none" d="M 5011,2569 L 5021,2582 4467,3027 4457,3014 5011,2569 Z"/>
         <path fill="rgb(11,11,11)" stroke="none" d="M 5015,2575 L 5026,2587 4471,3032 4461,3020 5015,2575 Z"/>
         <path fill="rgb(9,9,9)" stroke="none" d="M 5020,2580 L 5030,2593 4476,3038 4465,3025 5020,2580 Z"/>
         <path fill="rgb(7,7,7)" stroke="none" d="M 5024,2585 L 5034,2598 4480,3043 4470,3031 5024,2585 Z"/>
         <path fill="rgb(4,4,4)" stroke="none" d="M 5029,2591 L 5039,2604 4484,3049 4474,3036 5029,2591 Z"/>
         <path fill="rgb(2,2,2)" stroke="none" d="M 5033,2596 L 5043,2609 4489,3054 4479,3041 5033,2596 Z"/>
        </g>
        <path fill="rgb(178,178,178)" stroke="none" d="M 4552,2139 L 4453,2139 4438,2244 C 4412,2251 4387,2261 4365,2275 L 4280,2211 4210,2281 4274,2366 4274,2366 4274,2366 C 4260,2388 4250,2413 4243,2439 L 4138,2454 4138,2553 4243,2568 C 4250,2594 4260,2618 4274,2641 L 4274,2641 4274,2641 4210,2726 4280,2796 4365,2732 C 4387,2746 4412,2756 4438,2762 L 4453,2867 4552,2867 4567,2762 C 4593,2756 4618,2746 4640,2732 L 4725,2796 4795,2726 4731,2641 4731,2641 4731,2641 C 4745,2618 4755,2594 4761,2568 L 4867,2553 4867,2454 4761,2439 C 4755,2413 4745,2388 4731,2366 L 4731,2366 4731,2366 4795,2281 4725,2211 4640,2275 C 4618,2261 4593,2251 4567,2244 L 4552,2139 4552,2139 4552,2139 Z M 4472,2161 L 4533,2161 4545,2247 4547,2262 4561,2266 C 4585,2271 4608,2281 4629,2293 L 4641,2301 4653,2292 4723,2240 4766,2283 4713,2352 4705,2364 4712,2377 C 4725,2398 4734,2420 4740,2444 L 4744,2459 4758,2461 4845,2473 4845,2534 4758,2546 4744,2548 4740,2562 C 4734,2586 4725,2609 4712,2630 L 4705,2642 4713,2654 4766,2724 4723,2767 4653,2714 4641,2706 4629,2713 C 4608,2726 4585,2735 4561,2741 L 4547,2745 4545,2759 4533,2846 4472,2846 4460,2759 4458,2745 4443,2741 C 4420,2735 4397,2726 4376,2713 L 4363,2706 4352,2714 4282,2767 4239,2724 4291,2654 4300,2642 4292,2630 C 4280,2609 4270,2586 4265,2562 L 4261,2548 4246,2546 4160,2534 4160,2473 4246,2461 4261,2459 4265,2444 C 4270,2420 4280,2398 4292,2377 L 4300,2364 4291,2352 4239,2283 4282,2240 4352,2292 4363,2301 4376,2293 C 4397,2281 4420,2271 4443,2266 L 4458,2262 4460,2247 4472,2161 4472,2161 4472,2161 Z M 4502,2366 C 4427,2366 4365,2428 4365,2503 4365,2579 4427,2640 4502,2640 4578,2640 4639,2579 4639,2503 4639,2428 4578,2366 4502,2366 L 4502,2366 4502,2366 Z M 4387,2503 C 4387,2440 4439,2388 4502,2388 4566,2388 4617,2440 4617,2503 L 4617,2503 4617,2503 C 4617,2567 4566,2618 4502,2618 4439,2618 4387,2567 4387,2503 L 4387,2503 4387,2503 4387,2503 Z"/>
        <defs>
         <clipPath id="clip_path_3" clipPathUnits="userSpaceOnUse">
          <path d="M 4867,2553 L 4867,2454 4761,2439 C 4755,2413 4745,2388 4731,2366 L 4795,2281 4725,2211 4640,2275 C 4618,2261 4593,2251 4567,2244 L 4552,2139 4453,2139 4438,2244 C 4412,2251 4387,2261 4365,2275 L 4280,2211 4210,2281 4274,2366 C 4260,2388 4250,2413 4243,2439 L 4138,2454 4138,2553 4243,2568 C 4250,2594 4260,2618 4274,2641 L 4210,2726 4280,2796 4365,2732 C 4387,2746 4412,2756 4438,2762 L 4453,2867 4552,2867 4567,2762 C 4593,2756 4618,2746 4640,2732 L 4725,2796 4795,2726 4731,2641 C 4745,2618 4755,2594 4761,2568 L 4867,2553 4867,2553 Z M 4502,2618 C 4439,2618 4387,2567 4387,2503 4387,2440 4439,2388 4502,2388 4566,2388 4617,2440 4617,2503 4617,2567 4566,2618 4502,2618 L 4502,2618 Z"/>
         </clipPath>
        </defs>
        <g clip-path="url(#clip_path_3)">
         <path fill="rgb(255,255,255)" stroke="none" d="M 4580,1940 L 4595,1964 3976,2355 3961,2331 4580,1940 Z"/>
         <path fill="rgb(252,253,254)" stroke="none" d="M 4586,1951 L 4602,1975 3983,2366 3967,2342 4586,1951 Z"/>
         <path fill="rgb(250,251,254)" stroke="none" d="M 4593,1961 L 4608,1985 3989,2376 3974,2352 4593,1961 Z"/>
         <path fill="rgb(247,250,253)" stroke="none" d="M 4599,1971 L 4615,1996 3996,2387 3980,2362 4599,1971 Z"/>
         <path fill="rgb(244,248,252)" stroke="none" d="M 4606,1982 L 4621,2006 4002,2397 3987,2373 4606,1982 Z"/>
         <path fill="rgb(242,246,252)" stroke="none" d="M 4613,1992 L 4628,2016 4009,2407 3994,2383 4613,1992 Z"/>
         <path fill="rgb(239,244,251)" stroke="none" d="M 4619,2003 L 4634,2027 4015,2418 4000,2394 4619,2003 Z"/>
         <path fill="rgb(236,242,250)" stroke="none" d="M 4626,2013 L 4641,2037 4022,2428 4007,2404 4626,2013 Z"/>
         <path fill="rgb(234,241,249)" stroke="none" d="M 4632,2023 L 4648,2048 4028,2439 4013,2414 4632,2023 Z"/>
         <path fill="rgb(231,239,249)" stroke="none" d="M 4639,2034 L 4654,2058 4035,2449 4020,2425 4639,2034 Z"/>
         <path fill="rgb(228,237,248)" stroke="none" d="M 4645,2044 L 4661,2068 4042,2459 4026,2435 4645,2044 Z"/>
         <path fill="rgb(226,235,247)" stroke="none" d="M 4652,2055 L 4667,2079 4048,2470 4033,2446 4652,2055 Z"/>
         <path fill="rgb(223,233,247)" stroke="none" d="M 4659,2065 L 4674,2089 4055,2480 4039,2456 4659,2065 Z"/>
         <path fill="rgb(220,232,246)" stroke="none" d="M 4665,2075 L 4680,2100 4061,2491 4046,2466 4665,2075 Z"/>
         <path fill="rgb(218,230,245)" stroke="none" d="M 4672,2086 L 4687,2110 4068,2501 4053,2477 4672,2086 Z"/>
         <path fill="rgb(215,228,245)" stroke="none" d="M 4678,2096 L 4693,2120 4074,2511 4059,2487 4678,2096 Z"/>
         <path fill="rgb(212,226,244)" stroke="none" d="M 4685,2107 L 4700,2131 4081,2522 4066,2498 4685,2107 Z"/>
         <path fill="rgb(210,224,243)" stroke="none" d="M 4691,2117 L 4707,2141 4088,2532 4072,2508 4691,2117 Z"/>
         <path fill="rgb(207,223,242)" stroke="none" d="M 4698,2127 L 4713,2151 4094,2542 4079,2518 4698,2127 Z"/>
         <path fill="rgb(204,221,242)" stroke="none" d="M 4704,2138 L 4720,2162 4101,2553 4085,2529 4704,2138 Z"/>
         <path fill="rgb(202,219,241)" stroke="none" d="M 4711,2148 L 4726,2172 4107,2563 4092,2539 4711,2148 Z"/>
         <path fill="rgb(199,217,240)" stroke="none" d="M 4718,2158 L 4733,2183 4114,2574 4099,2549 4718,2158 Z"/>
         <path fill="rgb(196,215,240)" stroke="none" d="M 4724,2169 L 4739,2193 4120,2584 4105,2560 4724,2169 Z"/>
         <path fill="rgb(194,214,239)" stroke="none" d="M 4731,2179 L 4746,2203 4127,2594 4112,2570 4731,2179 Z"/>
         <path fill="rgb(191,212,238)" stroke="none" d="M 4737,2190 L 4753,2214 4133,2605 4118,2581 4737,2190 Z"/>
         <path fill="rgb(188,210,238)" stroke="none" d="M 4744,2200 L 4759,2224 4140,2615 4125,2591 4744,2200 Z"/>
         <path fill="rgb(186,208,237)" stroke="none" d="M 4750,2210 L 4766,2235 4147,2626 4131,2601 4750,2210 Z"/>
         <path fill="rgb(183,206,236)" stroke="none" d="M 4757,2221 L 4772,2245 4153,2636 4138,2612 4757,2221 Z"/>
         <path fill="rgb(180,205,236)" stroke="none" d="M 4764,2231 L 4779,2255 4160,2646 4144,2622 4764,2231 Z"/>
         <path fill="rgb(178,203,235)" stroke="none" d="M 4770,2242 L 4785,2266 4166,2657 4151,2633 4770,2242 Z"/>
         <path fill="rgb(175,201,234)" stroke="none" d="M 4777,2252 L 4792,2276 4173,2667 4158,2643 4777,2252 Z"/>
         <path fill="rgb(173,199,233)" stroke="none" d="M 4783,2262 L 4798,2287 4179,2678 4164,2653 4783,2262 Z"/>
         <path fill="rgb(170,198,233)" stroke="none" d="M 4790,2273 L 4805,2297 4186,2688 4171,2664 4790,2273 Z"/>
         <path fill="rgb(167,196,232)" stroke="none" d="M 4796,2283 L 4812,2307 4193,2698 4177,2674 4796,2283 Z"/>
         <path fill="rgb(165,194,231)" stroke="none" d="M 4803,2294 L 4818,2318 4199,2709 4184,2685 4803,2294 Z"/>
         <path fill="rgb(162,192,231)" stroke="none" d="M 4809,2304 L 4825,2328 4206,2719 4190,2695 4809,2304 Z"/>
         <path fill="rgb(159,190,230)" stroke="none" d="M 4816,2314 L 4831,2339 4212,2730 4197,2705 4816,2314 Z"/>
         <path fill="rgb(157,189,229)" stroke="none" d="M 4823,2325 L 4838,2349 4219,2740 4204,2716 4823,2325 Z"/>
         <path fill="rgb(154,187,229)" stroke="none" d="M 4829,2335 L 4844,2359 4225,2750 4210,2726 4829,2335 Z"/>
         <path fill="rgb(151,185,228)" stroke="none" d="M 4836,2346 L 4851,2370 4232,2761 4217,2737 4836,2346 Z"/>
         <path fill="rgb(149,183,227)" stroke="none" d="M 4842,2356 L 4858,2380 4238,2771 4223,2747 4842,2356 Z"/>
         <path fill="rgb(146,181,227)" stroke="none" d="M 4849,2366 L 4864,2390 4245,2781 4230,2757 4849,2366 Z"/>
         <path fill="rgb(143,180,226)" stroke="none" d="M 4855,2377 L 4871,2401 4252,2792 4236,2768 4855,2377 Z"/>
         <path fill="rgb(141,178,225)" stroke="none" d="M 4862,2387 L 4877,2411 4258,2802 4243,2778 4862,2387 Z"/>
         <path fill="rgb(138,176,224)" stroke="none" d="M 4869,2397 L 4884,2422 4265,2813 4249,2788 4869,2397 Z"/>
         <path fill="rgb(135,174,224)" stroke="none" d="M 4875,2408 L 4890,2432 4271,2823 4256,2799 4875,2408 Z"/>
         <path fill="rgb(133,172,223)" stroke="none" d="M 4882,2418 L 4897,2442 4278,2833 4263,2809 4882,2418 Z"/>
         <path fill="rgb(130,171,222)" stroke="none" d="M 4888,2429 L 4903,2453 4284,2844 4269,2820 4888,2429 Z"/>
         <path fill="rgb(127,169,222)" stroke="none" d="M 4895,2439 L 4910,2463 4291,2854 4276,2830 4895,2439 Z"/>
         <path fill="rgb(125,167,221)" stroke="none" d="M 4901,2449 L 4917,2474 4298,2865 4282,2840 4901,2449 Z"/>
         <path fill="rgb(122,165,220)" stroke="none" d="M 4908,2460 L 4923,2484 4304,2875 4289,2851 4908,2460 Z"/>
         <path fill="rgb(119,163,220)" stroke="none" d="M 4914,2470 L 4930,2494 4311,2885 4295,2861 4914,2470 Z"/>
         <path fill="rgb(117,162,219)" stroke="none" d="M 4921,2481 L 4936,2505 4317,2896 4302,2872 4921,2481 Z"/>
         <path fill="rgb(114,160,218)" stroke="none" d="M 4928,2491 L 4943,2515 4324,2906 4309,2882 4928,2491 Z"/>
         <path fill="rgb(111,158,217)" stroke="none" d="M 4934,2501 L 4949,2526 4330,2917 4315,2892 4934,2501 Z"/>
         <path fill="rgb(109,156,217)" stroke="none" d="M 4941,2512 L 4956,2536 4337,2927 4322,2903 4941,2512 Z"/>
         <path fill="rgb(106,154,216)" stroke="none" d="M 4947,2522 L 4963,2546 4344,2937 4328,2913 4947,2522 Z"/>
         <path fill="rgb(103,153,215)" stroke="none" d="M 4954,2533 L 4969,2557 4350,2948 4335,2924 4954,2533 Z"/>
         <path fill="rgb(101,151,215)" stroke="none" d="M 4960,2543 L 4976,2567 4357,2958 4341,2934 4960,2543 Z"/>
         <path fill="rgb(98,149,214)" stroke="none" d="M 4967,2553 L 5012,2624 4393,3015 4348,2944 4967,2553 Z"/>
        </g>
        <defs>
         <clipPath id="clip_path_4" clipPathUnits="userSpaceOnUse">
          <path d="M 4445,2130 C 4445,2130 4431,2227 4430,2237 4407,2243 4386,2252 4365,2264 4357,2257 4279,2199 4279,2199 L 4198,2280 C 4198,2280 4256,2358 4263,2366 4251,2387 4242,2408 4236,2431 4226,2432 4129,2446 4129,2446 L 4129,2561 C 4129,2561 4226,2574 4236,2576 4242,2598 4251,2620 4263,2640 4256,2649 4198,2727 4198,2727 L 4279,2808 C 4279,2808 4357,2749 4365,2743 4386,2754 4407,2763 4430,2770 4431,2780 4445,2877 4445,2877 L 4560,2877 C 4560,2877 4573,2780 4575,2770 4598,2763 4619,2754 4639,2743 4648,2749 4726,2808 4726,2808 L 4807,2727 C 4807,2727 4748,2649 4742,2640 4754,2620 4762,2598 4769,2576 4779,2574 4876,2561 4876,2561 L 4876,2446 C 4876,2446 4779,2432 4769,2431 4762,2408 4754,2387 4742,2366 4748,2358 4807,2280 4807,2280 L 4726,2199 C 4726,2199 4648,2257 4639,2264 4619,2252 4598,2243 4575,2237 4573,2227 4560,2130 4560,2130 L 4445,2130 4445,2130 Z M 4544,2148 C 4546,2162 4558,2252 4558,2252 L 4564,2253 C 4589,2259 4613,2269 4635,2283 L 4641,2286 C 4641,2286 4713,2231 4724,2223 4733,2232 4774,2273 4783,2282 4774,2292 4720,2365 4720,2365 L 4723,2370 C 4736,2392 4746,2416 4752,2441 L 4754,2447 C 4754,2447 4844,2460 4857,2462 4857,2474 4857,2532 4857,2545 4844,2547 4754,2559 4754,2559 L 4752,2565 C 4746,2590 4736,2614 4723,2636 L 4720,2642 C 4720,2642 4774,2714 4783,2725 4774,2734 4733,2775 4724,2783 4713,2775 4641,2721 4641,2721 L 4635,2724 C 4613,2737 4589,2747 4564,2753 L 4558,2755 C 4558,2755 4546,2845 4544,2858 4531,2858 4473,2858 4461,2858 4459,2845 4446,2755 4446,2755 L 4440,2753 C 4415,2747 4391,2737 4369,2724 L 4364,2721 C 4364,2721 4292,2775 4281,2783 4272,2775 4231,2734 4222,2725 4230,2714 4285,2642 4285,2642 L 4282,2636 C 4268,2614 4258,2590 4252,2565 L 4251,2559 C 4251,2559 4161,2547 4147,2545 4147,2532 4147,2474 4147,2462 4161,2460 4251,2447 4251,2447 L 4252,2441 C 4258,2416 4268,2392 4282,2370 L 4285,2365 C 4285,2365 4230,2292 4222,2282 4231,2273 4272,2232 4281,2223 4292,2231 4364,2286 4364,2286 L 4369,2283 C 4391,2269 4415,2259 4440,2253 L 4446,2252 C 4446,2252 4459,2162 4461,2148 4473,2148 4531,2148 4544,2148 L 4544,2148 Z"/>
         </clipPath>
        </defs>
        <g clip-path="url(#clip_path_4)">
         <path fill="rgb(255,255,255)" stroke="none" d="M 4575,1969 L 4580,1976 3975,2428 3970,2421 4575,1969 Z"/>
         <path fill="rgb(255,255,255)" stroke="none" d="M 4577,1972 L 4583,1979 3977,2431 3972,2424 4577,1972 Z"/>
         <path fill="rgb(253,254,254)" stroke="none" d="M 4580,1975 L 4585,1982 3979,2434 3974,2427 4580,1975 Z"/>
         <path fill="rgb(251,252,254)" stroke="none" d="M 4582,1978 L 4587,1985 3982,2437 3976,2430 4582,1978 Z"/>
         <path fill="rgb(250,251,253)" stroke="none" d="M 4584,1981 L 4590,1988 3984,2440 3979,2433 4584,1981 Z"/>
         <path fill="rgb(248,250,252)" stroke="none" d="M 4586,1984 L 4592,1992 3986,2443 3981,2436 4586,1984 Z"/>
         <path fill="rgb(246,248,252)" stroke="none" d="M 4589,1987 L 4594,1995 3989,2446 3983,2439 4589,1987 Z"/>
         <path fill="rgb(244,247,251)" stroke="none" d="M 4591,1991 L 4597,1998 3991,2450 3986,2442 4591,1991 Z"/>
         <path fill="rgb(242,246,250)" stroke="none" d="M 4593,1994 L 4599,2001 3993,2453 3988,2445 4593,1994 Z"/>
         <path fill="rgb(241,245,250)" stroke="none" d="M 4596,1997 L 4601,2004 3996,2456 3990,2449 4596,1997 Z"/>
         <path fill="rgb(239,243,249)" stroke="none" d="M 4598,2000 L 4603,2007 3998,2459 3993,2452 4598,2000 Z"/>
         <path fill="rgb(237,242,249)" stroke="none" d="M 4600,2003 L 4606,2010 4000,2462 3995,2455 4600,2003 Z"/>
         <path fill="rgb(235,241,248)" stroke="none" d="M 4603,2006 L 4608,2013 4003,2465 3997,2458 4603,2006 Z"/>
         <path fill="rgb(233,239,247)" stroke="none" d="M 4605,2009 L 4610,2016 4005,2468 3999,2461 4605,2009 Z"/>
         <path fill="rgb(232,238,247)" stroke="none" d="M 4607,2012 L 4613,2019 4007,2471 4002,2464 4607,2012 Z"/>
         <path fill="rgb(230,237,246)" stroke="none" d="M 4610,2015 L 4615,2023 4009,2474 4004,2467 4610,2015 Z"/>
         <path fill="rgb(228,235,245)" stroke="none" d="M 4612,2018 L 4617,2026 4012,2477 4006,2470 4612,2018 Z"/>
         <path fill="rgb(226,234,245)" stroke="none" d="M 4614,2022 L 4620,2029 4014,2481 4009,2473 4614,2022 Z"/>
         <path fill="rgb(224,233,244)" stroke="none" d="M 4617,2025 L 4622,2032 4016,2484 4011,2476 4617,2025 Z"/>
         <path fill="rgb(222,232,243)" stroke="none" d="M 4619,2028 L 4624,2035 4019,2487 4013,2480 4619,2028 Z"/>
         <path fill="rgb(221,230,243)" stroke="none" d="M 4621,2031 L 4627,2038 4021,2490 4016,2483 4621,2031 Z"/>
         <path fill="rgb(219,229,242)" stroke="none" d="M 4624,2034 L 4629,2041 4023,2493 4018,2486 4624,2034 Z"/>
         <path fill="rgb(217,228,241)" stroke="none" d="M 4626,2037 L 4631,2044 4026,2496 4020,2489 4626,2037 Z"/>
         <path fill="rgb(215,226,241)" stroke="none" d="M 4628,2040 L 4634,2047 4028,2499 4023,2492 4628,2040 Z"/>
         <path fill="rgb(213,225,240)" stroke="none" d="M 4630,2043 L 4636,2051 4030,2502 4025,2495 4630,2043 Z"/>
         <path fill="rgb(212,224,240)" stroke="none" d="M 4633,2046 L 4638,2054 4033,2505 4027,2498 4633,2046 Z"/>
         <path fill="rgb(210,222,239)" stroke="none" d="M 4635,2049 L 4641,2057 4035,2509 4030,2501 4635,2049 Z"/>
         <path fill="rgb(208,221,238)" stroke="none" d="M 4637,2053 L 4643,2060 4037,2512 4032,2504 4637,2053 Z"/>
         <path fill="rgb(206,220,238)" stroke="none" d="M 4640,2056 L 4645,2063 4040,2515 4034,2507 4640,2056 Z"/>
         <path fill="rgb(204,219,237)" stroke="none" d="M 4642,2059 L 4647,2066 4042,2518 4036,2511 4642,2059 Z"/>
         <path fill="rgb(203,217,236)" stroke="none" d="M 4644,2062 L 4650,2069 4044,2521 4039,2514 4644,2062 Z"/>
         <path fill="rgb(201,216,236)" stroke="none" d="M 4647,2065 L 4652,2072 4047,2524 4041,2517 4647,2065 Z"/>
         <path fill="rgb(199,215,235)" stroke="none" d="M 4649,2068 L 4654,2075 4049,2527 4043,2520 4649,2068 Z"/>
         <path fill="rgb(197,213,234)" stroke="none" d="M 4651,2071 L 4657,2078 4051,2530 4046,2523 4651,2071 Z"/>
         <path fill="rgb(195,212,234)" stroke="none" d="M 4654,2074 L 4659,2082 4053,2533 4048,2526 4654,2074 Z"/>
         <path fill="rgb(194,211,233)" stroke="none" d="M 4656,2077 L 4661,2085 4056,2536 4050,2529 4656,2077 Z"/>
         <path fill="rgb(192,209,232)" stroke="none" d="M 4658,2081 L 4664,2088 4058,2540 4053,2532 4658,2081 Z"/>
         <path fill="rgb(190,208,232)" stroke="none" d="M 4661,2084 L 4666,2091 4060,2543 4055,2535 4661,2084 Z"/>
         <path fill="rgb(188,207,231)" stroke="none" d="M 4663,2087 L 4668,2094 4063,2546 4057,2539 4663,2087 Z"/>
         <path fill="rgb(186,206,230)" stroke="none" d="M 4665,2090 L 4671,2097 4065,2549 4060,2542 4665,2090 Z"/>
         <path fill="rgb(185,204,230)" stroke="none" d="M 4668,2093 L 4673,2100 4067,2552 4062,2545 4668,2093 Z"/>
         <path fill="rgb(183,203,229)" stroke="none" d="M 4670,2096 L 4675,2103 4070,2555 4064,2548 4670,2096 Z"/>
         <path fill="rgb(181,202,229)" stroke="none" d="M 4672,2099 L 4678,2106 4072,2558 4067,2551 4672,2099 Z"/>
         <path fill="rgb(179,200,228)" stroke="none" d="M 4674,2102 L 4680,2109 4074,2561 4069,2554 4674,2102 Z"/>
         <path fill="rgb(177,199,227)" stroke="none" d="M 4677,2105 L 4682,2113 4077,2564 4071,2557 4677,2105 Z"/>
         <path fill="rgb(176,198,227)" stroke="none" d="M 4679,2108 L 4685,2116 4079,2567 4074,2560 4679,2108 Z"/>
         <path fill="rgb(174,196,226)" stroke="none" d="M 4681,2112 L 4687,2119 4081,2571 4076,2563 4681,2112 Z"/>
         <path fill="rgb(172,195,225)" stroke="none" d="M 4684,2115 L 4689,2122 4084,2574 4078,2566 4684,2115 Z"/>
         <path fill="rgb(170,194,225)" stroke="none" d="M 4686,2118 L 4691,2125 4086,2577 4080,2570 4686,2118 Z"/>
         <path fill="rgb(168,193,224)" stroke="none" d="M 4688,2121 L 4694,2128 4088,2580 4083,2573 4688,2121 Z"/>
         <path fill="rgb(166,191,223)" stroke="none" d="M 4691,2124 L 4696,2131 4091,2583 4085,2576 4691,2124 Z"/>
         <path fill="rgb(165,190,223)" stroke="none" d="M 4693,2127 L 4698,2134 4093,2586 4087,2579 4693,2127 Z"/>
         <path fill="rgb(163,189,222)" stroke="none" d="M 4695,2130 L 4701,2137 4095,2589 4090,2582 4695,2130 Z"/>
         <path fill="rgb(161,187,221)" stroke="none" d="M 4698,2133 L 4703,2141 4097,2592 4092,2585 4698,2133 Z"/>
         <path fill="rgb(159,186,221)" stroke="none" d="M 4700,2136 L 4705,2144 4100,2595 4094,2588 4700,2136 Z"/>
         <path fill="rgb(157,185,220)" stroke="none" d="M 4702,2139 L 4708,2147 4102,2599 4097,2591 4702,2139 Z"/>
         <path fill="rgb(156,183,220)" stroke="none" d="M 4705,2143 L 4710,2150 4104,2602 4099,2594 4705,2143 Z"/>
         <path fill="rgb(154,182,219)" stroke="none" d="M 4707,2146 L 4712,2153 4107,2605 4101,2597 4707,2146 Z"/>
         <path fill="rgb(152,181,218)" stroke="none" d="M 4709,2149 L 4715,2156 4109,2608 4104,2601 4709,2149 Z"/>
         <path fill="rgb(150,180,218)" stroke="none" d="M 4712,2152 L 4717,2159 4111,2611 4106,2604 4712,2152 Z"/>
         <path fill="rgb(148,178,217)" stroke="none" d="M 4714,2155 L 4719,2162 4114,2614 4108,2607 4714,2155 Z"/>
         <path fill="rgb(147,177,216)" stroke="none" d="M 4716,2158 L 4722,2165 4116,2617 4111,2610 4716,2158 Z"/>
         <path fill="rgb(145,176,216)" stroke="none" d="M 4718,2161 L 4724,2168 4118,2620 4113,2613 4718,2161 Z"/>
         <path fill="rgb(143,174,215)" stroke="none" d="M 4721,2164 L 4726,2172 4121,2623 4115,2616 4721,2164 Z"/>
         <path fill="rgb(141,173,214)" stroke="none" d="M 4723,2167 L 4728,2175 4123,2626 4118,2619 4723,2167 Z"/>
         <path fill="rgb(139,172,214)" stroke="none" d="M 4725,2171 L 4731,2178 4125,2630 4120,2622 4725,2171 Z"/>
         <path fill="rgb(138,170,213)" stroke="none" d="M 4728,2174 L 4733,2181 4128,2633 4122,2625 4728,2174 Z"/>
         <path fill="rgb(136,169,212)" stroke="none" d="M 4730,2177 L 4735,2184 4130,2636 4124,2629 4730,2177 Z"/>
         <path fill="rgb(134,168,212)" stroke="none" d="M 4732,2180 L 4738,2187 4132,2639 4127,2632 4732,2180 Z"/>
         <path fill="rgb(132,167,211)" stroke="none" d="M 4735,2183 L 4740,2190 4135,2642 4129,2635 4735,2183 Z"/>
         <path fill="rgb(130,165,210)" stroke="none" d="M 4737,2186 L 4742,2193 4137,2645 4131,2638 4737,2186 Z"/>
         <path fill="rgb(129,164,210)" stroke="none" d="M 4739,2189 L 4745,2196 4139,2648 4134,2641 4739,2189 Z"/>
         <path fill="rgb(127,163,209)" stroke="none" d="M 4742,2192 L 4747,2199 4141,2651 4136,2644 4742,2192 Z"/>
         <path fill="rgb(125,161,209)" stroke="none" d="M 4744,2195 L 4749,2203 4144,2654 4138,2647 4744,2195 Z"/>
         <path fill="rgb(123,160,208)" stroke="none" d="M 4746,2198 L 4752,2206 4146,2657 4141,2650 4746,2198 Z"/>
         <path fill="rgb(121,159,207)" stroke="none" d="M 4749,2202 L 4754,2209 4148,2661 4143,2653 4749,2202 Z"/>
         <path fill="rgb(120,157,207)" stroke="none" d="M 4751,2205 L 4756,2212 4151,2664 4145,2656 4751,2205 Z"/>
         <path fill="rgb(118,156,206)" stroke="none" d="M 4753,2208 L 4759,2215 4153,2667 4148,2660 4753,2208 Z"/>
         <path fill="rgb(116,155,205)" stroke="none" d="M 4755,2211 L 4761,2218 4155,2670 4150,2663 4755,2211 Z"/>
         <path fill="rgb(114,154,205)" stroke="none" d="M 4758,2214 L 4763,2221 4158,2673 4152,2666 4758,2214 Z"/>
         <path fill="rgb(112,152,204)" stroke="none" d="M 4760,2217 L 4766,2224 4160,2676 4155,2669 4760,2217 Z"/>
         <path fill="rgb(110,151,203)" stroke="none" d="M 4762,2220 L 4768,2227 4162,2679 4157,2672 4762,2220 Z"/>
         <path fill="rgb(109,150,203)" stroke="none" d="M 4765,2223 L 4770,2231 4165,2682 4159,2675 4765,2223 Z"/>
         <path fill="rgb(107,148,202)" stroke="none" d="M 4767,2226 L 4772,2234 4167,2685 4162,2678 4767,2226 Z"/>
         <path fill="rgb(105,147,201)" stroke="none" d="M 4769,2229 L 4775,2237 4169,2689 4164,2681 4769,2229 Z"/>
         <path fill="rgb(103,146,201)" stroke="none" d="M 4772,2233 L 4777,2240 4172,2692 4166,2684 4772,2233 Z"/>
         <path fill="rgb(101,144,200)" stroke="none" d="M 4774,2236 L 4779,2243 4174,2695 4168,2687 4774,2236 Z"/>
         <path fill="rgb(100,143,200)" stroke="none" d="M 4776,2239 L 4782,2246 4176,2698 4171,2691 4776,2239 Z"/>
         <path fill="rgb(98,142,199)" stroke="none" d="M 4779,2242 L 4784,2249 4179,2701 4173,2694 4779,2242 Z"/>
         <path fill="rgb(96,141,198)" stroke="none" d="M 4781,2245 L 4786,2252 4181,2704 4175,2697 4781,2245 Z"/>
         <path fill="rgb(94,139,198)" stroke="none" d="M 4783,2248 L 4789,2255 4183,2707 4178,2700 4783,2248 Z"/>
         <path fill="rgb(92,138,197)" stroke="none" d="M 4786,2251 L 4791,2258 4185,2710 4180,2703 4786,2251 Z"/>
         <path fill="rgb(91,137,196)" stroke="none" d="M 4788,2254 L 4793,2262 4188,2713 4182,2706 4788,2254 Z"/>
         <path fill="rgb(89,135,196)" stroke="none" d="M 4790,2257 L 4796,2265 4190,2716 4185,2709 4790,2257 Z"/>
         <path fill="rgb(87,134,195)" stroke="none" d="M 4793,2261 L 5033,2582 4427,3034 4187,2712 4793,2261 Z"/>
        </g>
        <defs>
         <clipPath id="clip_path_5" clipPathUnits="userSpaceOnUse">
          <path d="M 4376,2503 C 4376,2537 4389,2569 4413,2592 4437,2616 4469,2629 4502,2629 4572,2629 4628,2573 4628,2503 4628,2434 4572,2377 4502,2377 4433,2377 4376,2434 4376,2503 L 4376,2503 Z M 4429,2577 C 4409,2557 4398,2531 4398,2503 4398,2446 4445,2399 4502,2399 4560,2399 4607,2446 4607,2503 4607,2561 4560,2607 4502,2607 4475,2607 4448,2597 4429,2577 L 4429,2577 Z"/>
         </clipPath>
        </defs>
        <g clip-path="url(#clip_path_5)">
         <path fill="rgb(255,255,255)" stroke="none" d="M 4689,2814 L 4664,2794 4821,2598 4847,2618 4689,2814 Z"/>
         <path fill="rgb(251,252,254)" stroke="none" d="M 4678,2806 L 4653,2786 4811,2589 4836,2609 4678,2806 Z"/>
         <path fill="rgb(247,250,253)" stroke="none" d="M 4667,2797 L 4642,2777 4800,2580 4825,2600 4667,2797 Z"/>
         <path fill="rgb(244,247,252)" stroke="none" d="M 4657,2789 L 4632,2768 4789,2572 4814,2592 4657,2789 Z"/>
         <path fill="rgb(240,245,251)" stroke="none" d="M 4646,2780 L 4621,2760 4778,2563 4804,2583 4646,2780 Z"/>
         <path fill="rgb(236,242,250)" stroke="none" d="M 4635,2771 L 4610,2751 4768,2554 4793,2575 4635,2771 Z"/>
         <path fill="rgb(232,239,249)" stroke="none" d="M 4624,2763 L 4599,2743 4757,2546 4782,2566 4624,2763 Z"/>
         <path fill="rgb(228,237,248)" stroke="none" d="M 4614,2754 L 4589,2734 4746,2537 4771,2557 4614,2754 Z"/>
         <path fill="rgb(224,234,247)" stroke="none" d="M 4603,2745 L 4578,2725 4736,2529 4761,2549 4603,2745 Z"/>
         <path fill="rgb(221,232,246)" stroke="none" d="M 4592,2737 L 4567,2717 4725,2520 4750,2540 4592,2737 Z"/>
         <path fill="rgb(217,229,245)" stroke="none" d="M 4581,2728 L 4556,2708 4714,2511 4739,2532 4581,2728 Z"/>
         <path fill="rgb(213,227,244)" stroke="none" d="M 4571,2720 L 4546,2700 4703,2503 4728,2523 4571,2720 Z"/>
         <path fill="rgb(209,224,243)" stroke="none" d="M 4560,2711 L 4535,2691 4693,2494 4718,2514 4560,2711 Z"/>
         <path fill="rgb(205,221,242)" stroke="none" d="M 4549,2702 L 4524,2682 4682,2486 4707,2506 4549,2702 Z"/>
         <path fill="rgb(201,219,241)" stroke="none" d="M 4539,2694 L 4513,2674 4671,2477 4696,2497 4539,2694 Z"/>
         <path fill="rgb(198,216,240)" stroke="none" d="M 4528,2685 L 4503,2665 4660,2468 4685,2488 4528,2685 Z"/>
         <path fill="rgb(194,214,239)" stroke="none" d="M 4517,2677 L 4492,2656 4650,2460 4675,2480 4517,2677 Z"/>
         <path fill="rgb(190,211,238)" stroke="none" d="M 4506,2668 L 4481,2648 4639,2451 4664,2471 4506,2668 Z"/>
         <path fill="rgb(186,208,237)" stroke="none" d="M 4496,2659 L 4470,2639 4628,2443 4653,2463 4496,2659 Z"/>
         <path fill="rgb(182,206,236)" stroke="none" d="M 4485,2651 L 4460,2631 4617,2434 4642,2454 4485,2651 Z"/>
         <path fill="rgb(178,203,235)" stroke="none" d="M 4474,2642 L 4449,2622 4607,2425 4632,2445 4474,2642 Z"/>
         <path fill="rgb(175,201,234)" stroke="none" d="M 4463,2634 L 4438,2613 4596,2417 4621,2437 4463,2634 Z"/>
         <path fill="rgb(171,198,233)" stroke="none" d="M 4453,2625 L 4427,2605 4585,2408 4610,2428 4453,2625 Z"/>
         <path fill="rgb(167,196,232)" stroke="none" d="M 4442,2616 L 4417,2596 4574,2400 4599,2420 4442,2616 Z"/>
         <path fill="rgb(163,193,231)" stroke="none" d="M 4431,2608 L 4406,2588 4564,2391 4589,2411 4431,2608 Z"/>
         <path fill="rgb(159,190,230)" stroke="none" d="M 4420,2599 L 4395,2579 4553,2382 4578,2402 4420,2599 Z"/>
         <path fill="rgb(155,188,229)" stroke="none" d="M 4410,2590 L 4384,2570 4542,2374 4567,2394 4410,2590 Z"/>
         <path fill="rgb(152,185,228)" stroke="none" d="M 4399,2582 L 4374,2562 4531,2365 4556,2385 4399,2582 Z"/>
         <path fill="rgb(148,183,227)" stroke="none" d="M 4388,2573 L 4363,2553 4521,2356 4546,2377 4388,2573 Z"/>
         <path fill="rgb(144,180,226)" stroke="none" d="M 4377,2565 L 4352,2545 4510,2348 4535,2368 4377,2565 Z"/>
         <path fill="rgb(140,177,225)" stroke="none" d="M 4367,2556 L 4341,2536 4499,2339 4524,2359 4367,2556 Z"/>
         <path fill="rgb(136,175,224)" stroke="none" d="M 4356,2547 L 4331,2527 4488,2331 4513,2351 4356,2547 Z"/>
         <path fill="rgb(132,172,223)" stroke="none" d="M 4345,2539 L 4320,2519 4478,2322 4503,2342 4345,2539 Z"/>
         <path fill="rgb(129,170,222)" stroke="none" d="M 4334,2530 L 4309,2510 4467,2313 4492,2334 4334,2530 Z"/>
         <path fill="rgb(125,167,221)" stroke="none" d="M 4324,2522 L 4299,2502 4456,2305 4481,2325 4324,2522 Z"/>
         <path fill="rgb(121,165,220)" stroke="none" d="M 4313,2513 L 4288,2493 4445,2296 4470,2316 4313,2513 Z"/>
         <path fill="rgb(117,162,219)" stroke="none" d="M 4302,2504 L 4277,2484 4435,2288 4460,2308 4302,2504 Z"/>
         <path fill="rgb(113,159,218)" stroke="none" d="M 4291,2496 L 4266,2476 4424,2279 4449,2299 4291,2496 Z"/>
         <path fill="rgb(109,157,217)" stroke="none" d="M 4281,2487 L 4256,2467 4413,2270 4438,2290 4281,2487 Z"/>
         <path fill="rgb(106,154,216)" stroke="none" d="M 4270,2479 L 4245,2458 4402,2262 4427,2282 4270,2479 Z"/>
         <path fill="rgb(102,152,215)" stroke="none" d="M 4259,2470 L 4234,2450 4392,2253 4417,2273 4259,2470 Z"/>
        </g>
       </g>
      </g>
     </g>
    </g>
   </g>
  </g>
 </g>
</svg>